<?xml version="1.0" encoding="utf-8"?>
<!-- Generator: Adobe Illustrator 19.0.0, SVG Export Plug-In . SVG Version: 6.00 Build 0)  -->
<svg version="1.1" id="Layer_1" xmlns="http://www.w3.org/2000/svg" xmlns:xlink="http://www.w3.org/1999/xlink" x="0px" y="0px"
	 viewBox="-49 141 512 512" style="enable-background:new -49 141 512 512;" xml:space="preserve">
<style type="text/css">
	.st0{fill:none;}
	.st1{fill:#FFD7A3;}
	.st2{fill:#A8EFAA;}
	.st3{fill:#F5B97A;}
	.st4{fill:#411F93;}
	.st5{fill:#52299A;}
	.st6{fill:#FF6473;}
	.st7{fill:#FDC88E;}
	.st8{fill:#F05467;}
	.st9{fill:#BD445A;}
	.st10{fill:#9D6E48;}
	.st11{fill:#8D5F3D;}
	.st12{fill:#B8F4C4;}
	.st13{fill:#E4B07B;}
	.st14{font-family:'MyriadPro-Regular';}
	.st15{font-size:50.4272px;}
	.st16{fill:#C1C8B5;}
	.st17{fill:#F8FFEB;}
	.st18{font-family:'ADAM.CGPRO';}
	.st19{font-size:59.8563px;}
	.st20{opacity:0.34;}
	.st21{fill:#100E19;}
	.st22{fill:#211F33;}
	.st23{opacity:0.55;fill:#ACA1C6;}
	.st24{fill:#ACA1C6;}
</style>
<path class="st0" d="M309.7,482.5L309.7,482.5 M89.8,435.1c-0.1,0.1-0.1,0.3-0.2,0.4c0.2-0.4,0.3-0.8,0.5-1.1
	C90,434.6,89.9,434.9,89.8,435.1z M91,432.6c-0.1,0.2-0.2,0.3-0.3,0.5c0.1-0.2,0.2-0.4,0.3-0.6C91,432.5,91,432.6,91,432.6z
	 M91.3,432.1c0,0.1-0.1,0.1-0.1,0.2c0,0-0.1,0.1-0.1,0.2c0.1-0.2,0.2-0.3,0.3-0.5C91.3,432,91.3,432,91.3,432.1z M165.6,419.3
	c-0.8-0.9-2.1-1.6-3.8-1.6h-0.4c-2.8,0-5.1,1.7-5.1,3.8c0,3,4.6,5.1,8.8,2.8C167,422.4,166.9,420.5,165.6,419.3z M170.7,427.3
	c-0.8-0.9-2.2-1.6-3.8-1.6h-0.4c-2.8,0-5.1,1.7-5.1,3.8c0,3,4.6,5.1,8.8,2.8C172.2,430.5,172,428.6,170.7,427.3z M180.2,440.9
	c-0.8-0.9-2.2-1.6-3.8-1.6H176c-0.2,0-0.4,0-0.6,0c1.4-1.7,1.2-3.3,0-4.5c-0.8-0.9-2.2-1.6-3.8-1.6h-0.4c-2.2,0-4.1,1-4.8,2.5
	c0.3,0.2,0.6,0.3,0.9,0.5c2,1.1,4,2.2,6.2,3c0.2,0.1,0.5,0.2,0.7,0.3h0l0,0c0.1,0,0.1,0.1,0.2,0.1h0c0.2,0.1,0.3,0.1,0.5,0.2
	c1.9,0.7,3.8,1.4,5.8,1.9c0.1,0,0.1,0,0.2,0C180.7,441.5,180.5,441.2,180.2,440.9z M222.9,436.4h-0.4c-2.8,0-5.1,1.7-5.1,3.7
	c0.4-0.2,0.8-0.3,1.2-0.5c2.1-0.9,4.1-1.8,6.1-2.9h0c0,0,0.1,0,0.1,0C224.2,436.5,223.6,436.4,222.9,436.4z M229.5,430.4
	c-0.8-0.9-2.2-1.6-3.8-1.6h-0.4c-2.8,0-5.1,1.7-5.1,3.8c0,2.1,2.2,3.7,5,3.8c0,0,0,0,0,0c0.9-0.5,1.8-1.1,2.8-1.7c0,0,0,0,0,0
	c0,0,0.1,0,0.1,0c0,0,0,0,0,0c0,0,0.1,0,0.1,0c0.3-0.2,0.6-0.4,0.9-0.6c0,0,0,0,0,0c0.4-0.3,0.9-0.6,1.3-0.9
	C230.6,432.1,230.2,431.2,229.5,430.4z M230.7,422.6c-0.8-0.9-2.2-1.6-3.8-1.6h-0.4c-2.8,0-5.1,1.7-5.1,3.8c0,3,4.6,5.1,8.8,2.8
	C232.1,425.7,231.9,423.8,230.7,422.6z M239.3,413.3c0.6-0.6,1-1.3,1.2-1.9l-0.6-0.2l0,0c-2.4-0.8-4.3-2.3-5.7-4.2h0v0
	c0,0-0.1-0.1-0.1-0.1c-2.1,0.5-3.6,1.9-3.6,3.6c0,1.2,0.8,2.3,2,3c-0.2,0-0.3,0-0.5,0c-0.1,0-0.1,0-0.2,0c-0.1,0-0.1,0-0.2,0
	c-2.8,0-5.1,1.7-5.1,3.8c0,3,4.6,5.1,8.9,2.8c1.9-1.8,1.7-3.7,0.4-5c-0.3-0.3-0.6-0.6-1-0.8C236.2,414.4,237.8,414.1,239.3,413.3z
	 M296.9,208.2c-0.1-0.3-0.3-0.6-0.5-0.8c-0.7-0.5-2.5-1.7-5.1-3.2c-0.4-0.2-0.6-0.6-0.7-1.1c-0.9-10.1-3.8-16-5.1-18.1
	c-0.3-0.5-1-0.8-1.6-0.6l-2.1,0.7l-18,6c-0.3,0.1-0.6,0.1-0.9,0c-18.6-6.7-44.7-12.9-77.8-12.9c-0.3,0-0.7,0.1-0.9,0.4
	c-1.1,1-4.8,3.9-11.1,5.5c-0.2,0-0.4,0.1-0.6,0c-2.6-0.5-20.7-4.3-40-5.8c-0.6,0-1.1,0.3-1.4,0.9L120,206.9
	c-0.2,0.5-0.7,0.8-1.2,0.8c-4.9,0.3-28.7,3.4-28.7,35.4c0,0.5,0,1,0,1.5c0,0.3,0,0.7,0,1.1v0.1c0,0.3,0,0.6,0.1,1
	c0,0.3,0,0.5,0.1,0.8c0,0.2,0,0.4,0,0.6c0,0,0,0.1,0,0.2v0.1c0,0.1,0,0.2,0,0.3c0,0,0,0.1,0,0.1c0,0.1,0,0.1,0,0.2
	c0.1,0.5,0.1,1,0.2,1.5c0,0.3,0.1,0.6,0.1,0.9c0,0.3,0.1,0.6,0.1,0.9c0.2,1.5,0.4,3.1,0.7,4.8c0.1,0.4,0.1,0.8,0.2,1.2
	c0.4,2.5,0.8,5.2,1.3,7.9c0.1,0.5,0.2,1,0.3,1.5c0,0.2,0.1,0.4,0.1,0.5c0,0,0,0,0,0.1c0,0.2,0.1,0.4,0.1,0.6c0.1,0.5,0.2,1,0.3,1.6
	c0.2,1,0.4,1.9,0.6,2.9c0.1,0.5,0.2,1,0.3,1.4c0.1,0.3,0.1,0.7,0.2,1.1c0,0.2,0.1,0.4,0.1,0.5c0.1,0.5,0.2,1.1,0.3,1.6
	c0.4,1.9,0.8,3.8,1.2,5.6c0.1,0.5,0.2,1,0.3,1.5c0,0.1,0,0.1,0,0.2c0.1,0.3,0.1,0.7,0.2,1c0,0,0,0,0,0.1c0.1,0.3,0.1,0.5,0.2,0.8
	c0,0,0,0.1,0,0.1c0,0.1,0,0.2,0.1,0.3c0,0.1,0,0.1,0.1,0.2c0,0.2,0.1,0.3,0.1,0.5c0.1,0.3,0.2,0.7,0.2,1c0.1,0.4,0.2,0.7,0.3,1.1
	c0,0.3,0.1,0.5,0.2,0.8c0,0,0,0.1,0,0.1c0.1,0.3,0.1,0.7,0.2,1s0.1,0.6,0.2,1c0.2,0.7,0.3,1.4,0.5,2.1c0,0.1,0,0.2,0.1,0.3
	c0.2,1,0.5,2,0.7,2.9c0,0.1,0,0.2,0.1,0.3c0,0.2,0.1,0.3,0.1,0.5c0,0.1,0,0.2,0.1,0.3c0,0.2,0.1,0.5,0.2,0.7c0,0.1,0.1,0.2,0.1,0.3
	c0,0,0,0.1,0,0.1c0,0,0,0.1,0,0.1c0,0.1,0,0.1,0,0.2c0,0.2,0.1,0.4,0.1,0.5c0,0.1,0.1,0.2,0.1,0.3c0,0.1,0,0.2,0.1,0.3
	c-0.2,0.2-0.3,0.3-0.4,0.5c-0.1,0.1-0.2,0.3-0.3,0.4c0,0,0,0,0,0.1c0,0,0,0,0,0c-0.1,0.1-0.2,0.2-0.3,0.3c0,0,0,0.1-0.1,0.1l0,0
	c0,0,0,0,0,0c-0.6,0.8-1.1,1.6-1.5,2.5c0,0.1-0.1,0.2-0.2,0.3c-0.1,0.1-0.1,0.3-0.2,0.4c-0.1,0.1-0.1,0.3-0.2,0.4
	c-0.1,0.2-0.2,0.4-0.2,0.6c-0.1,0.1-0.1,0.3-0.2,0.5c0,0,0,0.1,0,0.1c0,0.1-0.1,0.3-0.2,0.5c0,0.2-0.1,0.3-0.1,0.5c0,0,0,0.1,0,0.2
	c-0.1,0.3-0.2,0.7-0.2,1c0,0.2-0.1,0.3-0.1,0.5c0,0,0,0,0,0c0,0.2-0.1,0.4-0.1,0.6c0,0.1,0,0.2-0.1,0.4c0,0.1,0,0.2,0,0.3
	c0,0.2,0,0.4,0,0.6c0,0.1,0,0.2,0,0.3c0,0.3,0,0.6,0,0.8c0,9.4,7.3,17,16.5,17.7c0.7,0,1.3,0.6,1.3,1.3v4.6
	c0,14.3,8.6,27.2,21.8,32.7l24.6,10.3c0.5,0.2,0.8,0.7,0.8,1.2V400c0,0.2,0,0.4,0,0.7v0.1c0,0.1,0,0.2,0,0.3c0,0.1,0,0.2,0,0.3
	c0,0,0,0,0,0c0,0,0,0.1,0,0.1c0,0.1,0,0.1,0,0.2c0,0.3-0.1,0.6-0.2,0.9c-0.1,0.3-0.1,0.6-0.2,0.8c0,0.2-0.1,0.4-0.2,0.5
	c-0.1,0.2-0.2,0.4-0.2,0.6c-0.6,1.5-1.6,2.9-2.8,4.1c0,0,0,0,0,0c-0.5,0.5-1.1,0.9-1.8,1.3l0,0c0,0-0.1,0.1-0.1,0.1
	c-0.5,0.3-1.1,0.6-1.7,0.8c0,0,0,0,0,0c-0.8,0.7-1.3,1.6-1.3,2.6c0,3,4.6,5.1,8.8,2.8c1.9-1.8,1.7-3.7,0.4-5
	c-0.1-0.1-0.2-0.3-0.4-0.4c38.6,4,62.5-20.5,68.9-28.2c0.3-0.3,0.4-0.8,0.3-1.1l0.9-0.4h0l0.5-0.2l0.8-0.3l24.6-10.3
	c13.2-5.5,21.8-18.4,21.8-32.7V333c0-0.7,0.5-1.3,1.3-1.3c9.2-0.6,16.5-8.3,16.5-17.7c0-0.3,0-0.6,0-0.9c0-0.2,0-0.5,0-0.7
	c0-0.2-0.1-0.4-0.1-0.6c0-0.1,0-0.2,0-0.2c0-0.2,0-0.3-0.1-0.5c0-0.3-0.1-0.6-0.2-0.9c-0.1-0.5-0.2-0.9-0.3-1.3
	c-0.1-0.2-0.2-0.5-0.2-0.7c-0.1-0.2-0.2-0.4-0.3-0.7c0,0,0,0,0,0c-0.2-0.4-0.4-0.9-0.6-1.3c-0.1-0.2-0.2-0.4-0.3-0.6
	c-0.2-0.4-0.5-0.8-0.7-1.2c-0.1-0.2-0.3-0.4-0.4-0.6c-0.1-0.2-0.3-0.4-0.4-0.5c0,0,0,0,0,0c0.9-2.3,2-5.3,3.2-9
	c0.1-0.4,0.3-0.8,0.4-1.2c0.3-1,0.6-2,0.9-3.1c0.1-0.4,0.2-0.7,0.3-1.1c0.8-3.2,1.6-6.7,2.3-10.5c0.1-0.2,0.1-0.5,0.1-0.7
	c0.2-1.3,0.5-2.6,0.7-4c0.1-0.5,0.2-1,0.2-1.5c0.4-2.8,0.8-5.8,1-8.8c0.1-0.5,0.1-0.9,0.1-1.4c0.1-1.3,0.2-2.5,0.3-3.8
	c0-0.7,0.1-1.3,0.1-2c0-0.4,0-0.9,0-1.3c0-0.7,0-1.5,0.1-2.2C302.9,239.1,301.4,224.2,296.9,208.2z M142.4,335.1
	c-1.3,0.1-2.5,0.2-3.7,0.2c-0.5,0-0.9,0-1.3,0c-0.4,0-0.8,0-1.2-0.1c-0.7-0.1-1.5-0.2-2.2-0.3c-7.8-1.3-12.6-7.8-15.3-13.1
	c-3.3-6.5-5.3-14.8-5.3-22.3c0-1.1,0.1-2.2,0.2-3.2c0.1,0,0.2,0,0.2,0V295c0-0.1,0-0.2,0.1-0.3c1.6-7.8,7.2-14.2,14.5-17.1
	c2.6-1,5.5-1.6,8.5-1.6h14c1.1,0,2.2,0.1,3.4,0.2c0.3,0,0.6,0,0.9,0.1c0.5,0,1,0.1,1.5,0.1c0.4,0,0.8,0.1,1.2,0.1
	c0.3,0,0.5,0,0.8,0.1c0.1,0,0.2,0,0.4,0c3.2,0.4,6.5,0.9,9.9,1.8c3.8,1,6.9,2.3,9.3,4.1c0,0,0,0,0,0c0.4,0.3,0.8,0.6,1.2,1
	c0.2,0.2,0.4,0.3,0.6,0.5c0.1,0,0.1,0.1,0.2,0.2c0.1,0.1,0.2,0.2,0.3,0.4c0.1,0.1,0.2,0.2,0.2,0.3c0.2,0.2,0.3,0.4,0.5,0.6
	c0,0,0,0,0,0c0.1,0.1,0.1,0.2,0.2,0.3c0.1,0.1,0.1,0.2,0.2,0.2c0.1,0.1,0.1,0.2,0.2,0.2c0,0,0.1,0.1,0.1,0.1
	c0.1,0.2,0.3,0.4,0.4,0.6c1.6,2.8,2.1,6,1.6,9.9c-0.7,5.5-3.4,11.5-7.7,17.2c0,0,0,0,0,0.1c-2.2,2.9-4.8,5.7-7.7,8.4
	C160.3,329.6,151,334,142.4,335.1z M225.8,352c-0.1,0.3-0.2,0.6-0.5,0.8c-0.4,0.3-0.8,0.7-1.3,1c-0.4,0.3-0.7,0.5-1.1,0.8
	c-0.3,0.2-0.6,0.4-1,0.6c-0.3,0.2-0.7,0.4-1.1,0.6c-0.3,0.2-0.6,0.3-0.9,0.5c-0.2,0.1-0.4,0.2-0.6,0.3c-0.2,0.1-0.4,0.2-0.5,0.3
	c-0.3,0.2-0.6,0.3-0.9,0.4c-0.3,0.2-0.7,0.3-1.1,0.5c-0.4,0.2-0.7,0.3-1.1,0.4c-0.5,0.2-1,0.4-1.5,0.5c-0.5,0.2-1,0.3-1.5,0.5
	c-0.6,0.2-1.3,0.4-1.9,0.5c-0.2,0.1-0.4,0.1-0.7,0.2c-0.1,0-0.2,0.1-0.4,0.1c-0.3,0.1-0.5,0.1-0.8,0.2c-0.2,0-0.3,0.1-0.5,0.1
	c-0.4,0.1-0.8,0.2-1.3,0.3c0,0-0.1,0-0.1,0c-0.2,0-0.3,0.1-0.5,0.1c-0.3,0-0.5,0.1-0.8,0.1c-0.2,0-0.4,0.1-0.6,0.1
	c-0.3,0.1-0.6,0.1-0.9,0.1c-0.5,0.1-1.1,0.1-1.6,0.2c-0.7,0.1-1.4,0.1-2.1,0.2c-0.7,0.1-1.4,0.1-2.2,0.1c-0.7,0-1.4,0-2.2,0
	c-0.6,0-1.2,0-1.7,0c-0.2,0-0.4,0-0.6,0c0,0,0,0,0,0c0,0,0,0,0,0c0,0,0,0,0,0c0,0-0.1,0-0.1,0c-0.2,0-0.4,0-0.7,0
	c-0.4,0-0.7,0-1.1-0.1c-0.5,0-1.1-0.1-1.6-0.1c-0.4,0-0.9-0.1-1.3-0.1c-0.1,0-0.1,0-0.2,0c-0.3,0-0.6-0.1-0.9-0.1
	c-0.9-0.1-1.7-0.2-2.6-0.4c-0.1,0-0.1,0-0.1,0c0,0,0,0,0,0c0,0,0,0,0,0c-0.3,0-0.6-0.1-0.8-0.2c-0.5-0.1-0.9-0.2-1.4-0.3h0
	c-0.2,0-0.3-0.1-0.5-0.1c-0.2,0-0.3-0.1-0.5-0.1c-0.3-0.1-0.6-0.2-0.9-0.2c-0.5-0.1-1-0.3-1.4-0.4c-0.1,0-0.2-0.1-0.3-0.1
	c-0.1,0-0.2,0-0.3-0.1c-0.1,0-0.2-0.1-0.3-0.1c-0.1,0-0.2-0.1-0.3-0.1c-0.3-0.1-0.5-0.2-0.8-0.3c-0.1,0-0.1,0-0.1,0
	c-0.3-0.1-0.5-0.2-0.8-0.3c0,0-0.1,0-0.1,0c-0.2-0.1-0.4-0.2-0.7-0.3c-0.3-0.1-0.7-0.3-1-0.4c-0.2-0.1-0.4-0.2-0.6-0.3
	c-0.1,0-0.2-0.1-0.3-0.1c-0.3-0.1-0.6-0.3-0.9-0.4c-0.4-0.2-0.7-0.4-1.1-0.6c-0.6-0.3-1.3-0.7-1.8-1c-0.4-0.2-0.8-0.5-1.1-0.7
	c-2.7-1.8-3.4-5.5-1.6-8.2c1.8-2.7,5.5-3.4,8.2-1.6c4.6,3.2,12.2,5,20.3,5c8.1,0,15.6-1.9,20.3-5C220.8,341.8,227.2,344.9,225.8,352
	z M274.8,321.8c-2.7,5.2-7.6,11.8-15.3,13.1c-1.5,0.3-3.1,0.4-4.7,0.4c0,0,0,0,0,0c-1.2,0-2.4-0.1-3.7-0.2h0
	c-8.6-1-17.9-5.5-25.9-12.7c-3-2.7-5.6-5.5-7.8-8.5c0,0,0,0,0,0c-4.2-5.7-7-11.7-7.6-17.1c-0.5-3.8,0.1-7.1,1.6-9.9
	c1-1.7,2.3-3.2,4-4.4c0,0,0,0,0,0c2.4-1.8,5.5-3.1,9.3-4.1c6.3-1.6,12.5-2.1,18-2.3h14c0.3,0,0.7,0,1,0c0.3,0,0.7,0,1,0.1
	c0.3,0,0.6,0.1,1,0.1c0.3,0,0.6,0.1,0.9,0.1c1.7,0.3,3.3,0.7,4.8,1.3c0.2,0.1,0.4,0.2,0.6,0.2c0.2,0.1,0.5,0.2,0.7,0.3
	c1,0.5,2,1,2.9,1.6c0.4,0.3,0.8,0.5,1.1,0.8c0,0,0,0,0.1,0c0.4,0.3,0.8,0.6,1.1,0.9c0.3,0.3,0.7,0.6,1,0.9c0.1,0,0.1,0.1,0.2,0.2
	c0.3,0.3,0.6,0.6,0.9,0.9c0.3,0.4,0.7,0.7,1,1.1c0.3,0.4,0.6,0.7,0.8,1.1c0,0,0,0,0.1,0.1c0.3,0.4,0.6,0.8,0.8,1.2c0,0,0,0,0,0
	c1,1.6,1.8,3.3,2.4,5.2c0,0.1,0.1,0.3,0.1,0.5v3.6c0.3,0,0.6,0,0.8,0h0c0.1,1.1,0.2,2.1,0.2,3.2C280.2,307,278.2,315.3,274.8,321.8z
	 M83.1,482.5L83.1,482.5L83.1,482.5l-0.1,0l-0.2,0c-0.1,0-0.3,0-0.4,0c-0.1,0-0.2,0-0.3,0c-0.1,0-0.2,0-0.3,0c-0.1,0-0.2,0-0.3,0.1
	c-0.2,0-0.3,0.1-0.5,0.2l0,0c-0.2,0.1-0.3,0.2-0.5,0.3c-0.1,0-0.1,0.1-0.2,0.1c-0.1,0-0.1,0.1-0.2,0.1c-0.1,0.1-0.2,0.1-0.2,0.2
	c-0.3,0.3-0.5,0.6-0.6,0.9c0,0.1-0.1,0.2-0.1,0.3c0,0.1-0.1,0.2-0.1,0.3c-0.1,0.2-0.1,0.4-0.1,0.6l-0.1,0.6l3.8-0.5l0.5-0.1
	l12.1-1.7L83.1,482.5z"/>
<path class="st1" d="M240.5,411.4c-0.2,0.6-0.6,1.3-1.2,1.9c-1.5,0.9-3.1,1.1-4.5,1c0.4,0.2,0.7,0.5,1,0.8c1.3,1.3,1.4,3.2-0.4,5
	c-4.2,2.4-8.9,0.2-8.9-2.8c0-2.1,2.3-3.8,5.1-3.8c0.1,0,0.1,0,0.2,0c0.1,0,0.1,0,0.2,0c0.2,0,0.3,0,0.5,0c-1.2-0.7-2-1.8-2-3
	c0-1.7,1.5-3.1,3.6-3.6c-1.4-2-2.2-4.4-2.2-6.9v-18.1c0-0.5,0.3-1,0.8-1.3l-0.8,0.3l-0.5,0.2h0l-0.9,0.4c0.1,0.4,0,0.8-0.3,1.1
	c-6.4,7.7-30.3,32.2-68.9,28.2c0.1,0.1,0.3,0.3,0.4,0.4c1.3,1.3,1.4,3.2-0.4,5c-4.2,2.4-8.8,0.2-8.8-2.8c0-1,0.5-1.9,1.3-2.6
	c-0.2,0.1-0.4,0.2-0.7,0.3l-7.9,2.6c5.1,9.1,12.6,16.7,21.5,22c0.7-1.5,2.6-2.5,4.8-2.5h0.4c1.6,0,3,0.6,3.8,1.6
	c1.2,1.2,1.4,2.9,0,4.5c0.2,0,0.4,0,0.6,0h0.4c1.6,0,3,0.6,3.8,1.6c0.3,0.3,0.5,0.6,0.7,1c4.9,1.3,10.2,2.1,15.5,2.1
	c7.4,0,14.5-1.4,21-3.9c0-2.1,2.3-3.7,5.1-3.7h0.4c0.7,0,1.3,0.1,1.9,0.3c0.2-0.1,0.3-0.2,0.5-0.3c-2.8,0-5-1.7-5-3.8
	c0-2.1,2.3-3.8,5.1-3.8h0.4c1.6,0,3,0.6,3.8,1.6c0.7,0.7,1.1,1.7,0.9,2.7c7.1-5,13.1-11.6,17.4-19.3L240.5,411.4z M156.3,421.5
	c0-2.1,2.3-3.8,5.1-3.8h0.4c1.6,0,3,0.6,3.8,1.6c1.3,1.3,1.4,3.2-0.4,5C161,426.6,156.3,424.4,156.3,421.5z M170.3,432.3
	c-4.2,2.4-8.8,0.2-8.8-2.8c0-2.1,2.3-3.8,5.1-3.8h0.4c1.6,0,3,0.6,3.8,1.6C172,428.6,172.2,430.5,170.3,432.3z M230.2,427.5
	c-4.2,2.4-8.8,0.2-8.8-2.8c0-2.1,2.3-3.8,5.1-3.8h0.4c1.6,0,3,0.6,3.8,1.6C231.9,423.8,232.1,425.7,230.2,427.5z"/>
<path class="st1" d="M280.2,299.6c0,7.5-2,15.8-5.3,22.3c-2.7,5.2-7.5,11.8-15.3,13.1c-1.5,0.3-3.1,0.4-4.7,0.4c0,0,0,0,0,0
	c-1.2,0-2.4-0.1-3.7-0.2c0.4-0.1,0.8-0.1,1.3-0.2c7.5-1.2,13.8-6.3,18.1-14.5c3.3-6.4,5.3-14.6,5.3-21.9c0-0.3,0-0.5,0-0.8v0
	c-0.2-6.2-2.6-11.9-6.4-16.3c0,0,0,0,0,0c-0.2-0.2-0.4-0.5-0.6-0.7l0-0.1c-0.4-0.4-0.8-0.8-1.3-1.3c-0.7-0.6-1.4-1.1-2.2-1.7
	c0.2,0.1,0.4,0.2,0.6,0.2c0.2,0.1,0.5,0.2,0.7,0.3c1,0.5,2,1,2.9,1.6c0.4,0.3,0.8,0.5,1.1,0.8c0,0,0,0,0.1,0
	c0.4,0.3,0.8,0.6,1.1,0.9c0.3,0.3,0.7,0.6,1,0.9c0.1,0,0.1,0.1,0.2,0.2c0.3,0.3,0.6,0.6,0.9,0.9c0.3,0.4,0.7,0.7,1,1.1
	c0.3,0.4,0.6,0.7,0.8,1.1c0,0,0,0,0,0.1c0.3,0.4,0.6,0.8,0.8,1.2c0,0,0,0,0,0c1,1.6,1.8,3.3,2.4,5.2c0,0.1,0.1,0.3,0.1,0.5v3.6
	c0.3,0,0.6,0,0.8,0h0C280.1,297.4,280.2,298.5,280.2,299.6z"/>
<path class="st2" d="M183.7,296.8c-0.7,5.5-3.4,11.5-7.7,17.2c0,0,0,0,0,0.1c-2.2,2.9-4.8,5.7-7.7,8.4c-8,7.2-17.2,11.7-25.9,12.7
	c-0.4-0.1-0.9-0.1-1.3-0.2c-7.5-1.2-13.8-6.3-18.1-14.5c-3.4-6.4-5.4-14.6-5.4-21.9c0-0.4,0-0.7,0-1.1c0,0,0,0,0,0
	c0.3-6.1,2.7-11.7,6.5-16.1c0,0,0,0,0,0c0.2-0.2,0.3-0.4,0.5-0.6l0,0c0.2-0.2,0.3-0.4,0.5-0.5v0c0,0,0,0,0,0c0.9-0.8,1.9-1.7,3-2.4
	c2.6-1,5.5-1.6,8.5-1.6h14c1.1,0,2.2,0.1,3.4,0.2c0.3,0,0.6,0,0.9,0.1c0.5,0,1,0.1,1.5,0.1c0.4,0,0.8,0.1,1.2,0.1
	c0.3,0,0.5,0.1,0.8,0.1c0.1,0,0.2,0,0.4,0c3.2,0.4,6.5,0.9,9.9,1.8c3.8,1,6.9,2.3,9.3,4.1c1.7,1.3,3.1,2.8,4,4.5
	C183.6,289.6,184.2,292.9,183.7,296.8z"/>
<g>
	<path class="st3" d="M230,382.7c-6.4,7.7-30.3,32.2-68.9,28.2c0,0,0,0,0,0c0,0-0.1,0-0.1,0c-0.9-0.1-1.8-0.2-2.8-0.3
		c-0.5-0.1-0.9-0.4-1.1-0.8v0c-0.1-0.3-0.2-0.7,0-1c0,0,0,0,0,0c0.1-0.2,0.2-0.3,0.3-0.4c1.2-1.2,2.2-2.6,2.8-4.3
		c0.1-0.2,0.1-0.4,0.2-0.5c0.1-0.3,0.2-0.5,0.2-0.8c0.1-0.3,0.1-0.6,0.2-0.9c0-0.1,0-0.1,0-0.2c0-0.1,0-0.1,0-0.1c0,0,0,0,0,0
		c0-0.1,0-0.2,0-0.3c0-0.1,0-0.3,0-0.4c0-0.2,0-0.4,0-0.7v-18.2c0-0.3,0.1-0.6,0.2-0.8h0c0.2-0.4,0.7-0.6,1.1-0.6H229
		c0.7,0,1.2,0.5,1.4,1.1C230.4,381.9,230.3,382.3,230,382.7z"/>
</g>
<path class="st1" d="M296.8,313.2c0-0.2,0-0.5,0-0.7c0-0.2-0.1-0.4-0.1-0.6c0-0.1,0-0.2,0-0.2c0-0.2,0-0.3-0.1-0.5
	c0-0.3-0.1-0.6-0.2-0.9c-0.1-0.5-0.2-0.9-0.3-1.3c-0.1-0.2-0.2-0.5-0.2-0.7c-0.1-0.2-0.2-0.4-0.3-0.7c0,0,0,0,0,0
	c-0.2-0.4-0.4-0.9-0.6-1.3c-0.1-0.2-0.2-0.4-0.3-0.6c-0.2-0.4-0.5-0.8-0.7-1.2c-0.1-0.2-0.3-0.4-0.4-0.6c-0.1-0.2-0.3-0.4-0.4-0.5
	c0,0,0,0,0,0c-1.4-1.8-3.2-3.4-5.3-4.5c-1.4-0.8-2.9-1.4-4.5-1.8c-0.2,0-0.3-0.1-0.5-0.1c-0.1,0-0.3-0.1-0.4-0.1
	c-0.4-0.1-0.8-0.1-1.2-0.2c-0.2,0-0.3,0-0.5,0c-0.2,0-0.5,0-0.7-0.1c0.1,1.1,0.2,2.1,0.2,3.2c0,7.4-2,15.8-5.3,22.3
	c-2.7,5.2-7.6,11.8-15.3,13.1c-1.5,0.3-3.1,0.4-4.7,0.4c0,0,0,0,0,0c-1.2,0-2.4-0.1-3.7-0.2h0c-8.6-1-17.9-5.5-25.9-12.7
	c-3-2.7-5.6-5.5-7.8-8.5c0,0,0,0,0,0c-4.2-5.7-7-11.7-7.6-17.1c-0.5-3.8,0.1-7.1,1.6-9.9c1-1.7,2.3-3.2,4-4.4c0,0,0,0,0,0
	c2.4-1.8,5.5-3.1,9.3-4.1c6.3-1.6,12.5-2.1,18-2.3h14c0.3,0,0.7,0,1,0c0.3,0,0.6,0,1,0.1c0.3,0,0.6,0.1,1,0.1c0.3,0,0.6,0.1,0.9,0.1
	c1.7,0.3,3.3,0.7,4.8,1.3c0.2,0.1,0.4,0.2,0.6,0.2c0.2,0.1,0.5,0.2,0.7,0.3c1,0.5,2,1,2.9,1.6c0.4,0.3,0.8,0.5,1.1,0.8
	c0,0,0,0,0.1,0c0.4,0.3,0.8,0.6,1.1,0.9c0.3,0.3,0.7,0.6,1,0.9c0.1,0,0.1,0.1,0.2,0.2c0.3,0.3,0.6,0.6,0.9,0.9
	c0.3,0.4,0.7,0.7,1,1.1c0.3,0.4,0.6,0.7,0.8,1.1c0,0,0,0,0.1,0.1c0.3,0.4,0.6,0.8,0.8,1.2c0,0,0,0,0,0c0.8,1.1,2.5,0.6,2.5-0.7v-1.8
	c0-2.6-0.3-5-1-7.4c-3.3-12.7-14.8-22.1-28.6-22.1H142.5c-0.3,0-0.6,0-0.9,0c-0.4,0-0.8,0.1-1.2,0.1c-0.1,0-0.2,0-0.3,0
	c-0.2,0-0.5,0.1-0.7,0.1c-0.7,0.1-1.4,0.2-2.1,0.3c-0.4,0.1-0.8,0.2-1.3,0.3c-0.4,0.1-0.8,0.2-1.2,0.3c-0.4,0.1-0.8,0.3-1.2,0.4
	c-0.3,0.1-0.6,0.2-0.9,0.3c-2.9,1.1-5.5,2.6-7.9,4.5c-0.2,0.2-0.5,0.4-0.7,0.6c-0.1,0.1-0.2,0.1-0.3,0.2c-0.2,0.1-0.3,0.3-0.5,0.4
	c0,0-0.1,0.1-0.1,0.1c-0.2,0.1-0.3,0.3-0.5,0.4c-0.3,0.3-0.5,0.5-0.8,0.8c0,0,0,0-0.1,0c-0.6,0.6-1.2,1.3-1.8,2
	c-0.2,0.2-0.4,0.5-0.5,0.7c0,0.1-0.1,0.1-0.1,0.2l-0.4,0.6c-0.3,0.3-0.5,0.7-0.7,1c-0.1,0.1-0.1,0.2-0.2,0.3
	c-0.1,0.2-0.2,0.4-0.3,0.5c-0.1,0.2-0.3,0.4-0.4,0.7c-0.1,0.2-0.2,0.3-0.3,0.5c0,0.1-0.1,0.2-0.1,0.2c-0.2,0.3-0.4,0.7-0.5,1.1
	c0,0,0,0.1,0,0.1v0c0,0,0,0.1-0.1,0.1c-0.1,0.2-0.2,0.3-0.2,0.5c-0.1,0.2-0.1,0.3-0.2,0.5c0,0,0,0,0,0c0,0.1-0.1,0.1-0.1,0.2
	c0,0.1,0,0.1-0.1,0.2c0,0.1,0,0.1-0.1,0.2c0,0.1-0.1,0.2-0.1,0.3l-0.1,0.4c0,0.1-0.1,0.3-0.2,0.4c0,0,0,0.1-0.1,0.2c0,0,0,0.1,0,0.2
	c0,0.1,0,0.1-0.1,0.2c0,0.1-0.1,0.3-0.1,0.4c0,0.1,0,0.1-0.1,0.2c0,0,0,0,0,0.1c0,0.1-0.1,0.2-0.1,0.3c0,0.1,0,0.2-0.1,0.3
	c0,0.1-0.1,0.2-0.1,0.3c0,0.2-0.1,0.4-0.1,0.6c0,0.1,0,0.1,0,0.2c0,0.1,0,0.2-0.1,0.3v0c0,0,0,0,0,0c0,0,0,0,0,0v0c0,0,0,0,0,0
	c0,0,0,0.1,0,0.1c0,0,0,0.1,0,0.2c-0.3,1.3-0.5,2.5-0.6,3.8c0,0.1,0,0.1,0,0.2c0,0,0,0.1,0,0.1c0,0.1,0,0.1,0,0.2c0,0.1,0,0.3,0,0.4
	c0,0.1,0,0.1,0,0.2c0,0.1,0,0.1,0,0.1v0.3c0,0,0,0.1,0,0.2v0.1l0,0v0.1c0,0.2,0,0.4,0,0.7V295c0-0.1,0-0.2,0.1-0.3
	c1.6-7.8,7.2-14.2,14.5-17.1c2.6-1,5.5-1.6,8.5-1.6h14c1.1,0,2.2,0.1,3.4,0.2c0.3,0,0.6,0,0.9,0.1c0.5,0,1,0.1,1.5,0.1
	c0.4,0,0.8,0.1,1.2,0.1c0.3,0,0.5,0,0.8,0.1c0.1,0,0.2,0,0.4,0c3.2,0.4,6.5,0.9,9.9,1.8c3.8,1,6.9,2.3,9.3,4.1c0,0,0,0,0,0
	c0.4,0.3,0.8,0.6,1.2,1c0.2,0.2,0.4,0.3,0.6,0.5c0.1,0,0.1,0.1,0.2,0.2c0.1,0.1,0.2,0.2,0.3,0.4c0.1,0.1,0.2,0.2,0.2,0.3
	c0.2,0.2,0.3,0.4,0.5,0.6c0,0,0,0,0,0c0.1,0.1,0.1,0.2,0.2,0.3c0.1,0.1,0.1,0.2,0.2,0.2c0.1,0.1,0.1,0.2,0.2,0.2
	c0,0,0.1,0.1,0.1,0.1c0.1,0.2,0.3,0.4,0.4,0.6c1.6,2.8,2.1,6,1.6,9.9c-0.7,5.5-3.4,11.5-7.7,17.2c0,0,0,0,0,0.1
	c-2.2,2.9-4.8,5.7-7.7,8.4c-8,7.2-17.2,11.7-25.9,12.7c-1.3,0.1-2.5,0.2-3.7,0.2c-0.5,0-0.9,0-1.3,0c-0.4,0-0.8,0-1.2-0.1
	c-0.7-0.1-1.5-0.2-2.2-0.3c-7.8-1.3-12.6-7.8-15.3-13.1c-3.3-6.5-5.3-14.8-5.3-22.3c0-1.1,0.1-2.2,0.2-3.2c-0.3,0-0.5,0-0.8,0
	c0,0-0.1,0-0.1,0c-0.1,0-0.2,0-0.3,0c-0.1,0-0.1,0-0.1,0c-0.1,0-0.1,0-0.2,0c-0.1,0-0.2,0-0.2,0c-0.3,0-0.6,0.1-1,0.1
	c-0.2,0-0.3,0-0.5,0.1c0,0,0,0-0.1,0c-0.1,0-0.3,0.1-0.4,0.1c-0.2,0-0.3,0-0.4,0.1c-0.2,0-0.4,0.1-0.5,0.1c-0.3,0.1-0.6,0.2-0.8,0.3
	c-0.2,0.1-0.4,0.1-0.6,0.2c-0.2,0.1-0.4,0.2-0.6,0.2c-0.4,0.2-0.8,0.4-1.2,0.6c-0.3,0.1-0.5,0.3-0.7,0.4c-0.2,0.1-0.4,0.2-0.6,0.4
	c-0.2,0.1-0.4,0.2-0.6,0.4c-0.2,0.2-0.4,0.3-0.6,0.5c0,0-0.1,0-0.1,0.1c-0.2,0.1-0.4,0.3-0.5,0.4c-0.1,0.1-0.3,0.2-0.4,0.3
	c-0.2,0.2-0.3,0.3-0.5,0.5c-0.2,0.2-0.4,0.4-0.6,0.6c-0.2,0.2-0.4,0.4-0.6,0.6c-0.2,0.2-0.3,0.3-0.4,0.5c-0.1,0.1-0.2,0.3-0.3,0.4
	c0,0,0,0,0,0.1c0,0,0,0,0,0c-0.1,0.1-0.2,0.2-0.3,0.3c0,0,0,0.1-0.1,0.1l0,0c0,0,0,0,0,0c-0.6,0.8-1.1,1.6-1.5,2.5
	c0,0.1-0.1,0.2-0.2,0.3c-0.1,0.1-0.1,0.3-0.2,0.4c-0.1,0.1-0.1,0.3-0.2,0.4c-0.1,0.2-0.2,0.4-0.2,0.6c-0.1,0.1-0.1,0.3-0.2,0.5
	c0,0,0,0.1,0,0.1c0,0.1-0.1,0.3-0.2,0.5c0,0.2-0.1,0.3-0.1,0.5c0,0,0,0.1,0,0.2c-0.1,0.3-0.2,0.7-0.2,1c0,0.2-0.1,0.3-0.1,0.5
	c0,0,0,0,0,0c0,0.2-0.1,0.4-0.1,0.6c0,0.1,0,0.2-0.1,0.4c0,0.1,0,0.2,0,0.3c0,0.2,0,0.4,0,0.6c0,0.1,0,0.2,0,0.3c0,0.3,0,0.6,0,0.8
	c0,9.4,7.3,17,16.5,17.7c0.7,0,1.3,0.6,1.3,1.3v4.6c0,14.3,8.6,27.2,21.8,32.7l24.6,10.3l0.8,0.3l0.2,0.1h0l12.5,5.2
	c0.5,0.2,1,0.4,1.5,0.6c0.6,0.2,1.2,0.4,1.8,0.6c0.8,0.3,1.6,0.5,2.4,0.8c0,0,0,0,0,0c5.5,1.7,11.3,2.5,17,2.5
	c3.9,0,7.8-0.4,11.6-1.2c3.8-0.8,7.5-1.9,11.1-3.4l11.2-4.7l0.9-0.4h0l0.5-0.2l0.8-0.3l24.6-10.3c13.2-5.5,21.8-18.4,21.8-32.7V333
	c0-0.7,0.5-1.3,1.3-1.3c9.2-0.6,16.5-8.3,16.5-17.7C296.8,313.7,296.8,313.4,296.8,313.2z M179,358.8c-0.1,0-0.2-0.1-0.3-0.1
	C178.8,358.8,178.9,358.8,179,358.8C179,358.8,179,358.8,179,358.8z M183.2,360c-0.2,0-0.3-0.1-0.5-0.1c0,0-0.1,0-0.1,0
	C182.8,359.9,183,359.9,183.2,360L183.2,360z M185.5,360.5C185.5,360.5,185.5,360.4,185.5,360.5
	C185.5,360.4,185.5,360.4,185.5,360.5C185.5,360.4,185.5,360.5,185.5,360.5z M189.3,361C189.3,361,189.2,361,189.3,361
	c0.1,0,0.3,0,0.5,0C189.6,361,189.4,361,189.3,361z M204.4,360.9c-0.1,0-0.1,0-0.2,0C204.3,360.9,204.4,360.9,204.4,360.9
	C204.5,360.9,204.5,360.9,204.4,360.9z M207.3,360.5C207.3,360.5,207.3,360.5,207.3,360.5c0.2,0,0.4-0.1,0.7-0.1
	C207.7,360.4,207.5,360.4,207.3,360.5z M209.9,359.9C209.8,359.9,209.8,359.9,209.9,359.9C209.8,359.9,209.9,359.9,209.9,359.9
	C209.9,359.9,209.9,359.9,209.9,359.9z M215.8,358.1c-0.1,0-0.1,0-0.2,0.1C215.7,358.2,215.8,358.1,215.8,358.1
	C215.9,358.1,215.8,358.1,215.8,358.1z M220,356.3C220,356.3,220,356.3,220,356.3c0,0,0.1-0.1,0.2-0.1
	C220.1,356.2,220.1,356.3,220,356.3z M222,355.2c-0.1,0.1-0.2,0.1-0.3,0.2c0.2-0.1,0.4-0.2,0.5-0.3
	C222.2,355.1,222.1,355.1,222,355.2z"/>
<path class="st4" d="M134.7,478.4l-3.5,0.5c-0.2-1-0.4-2-0.6-3c-0.1-0.4-0.2-0.8-0.4-1.2c-0.1-0.3-0.2-0.6-0.3-0.9c0,0,0-0.1,0-0.1
	c-0.1-0.2-0.1-0.4-0.2-0.6c-0.2-0.5-0.4-0.9-0.6-1.4c-0.2-0.3-0.3-0.6-0.5-1c-0.1-0.3-0.3-0.5-0.5-0.8c0,0,0-0.1-0.1-0.1
	c-0.1-0.2-0.2-0.3-0.3-0.5l2.9-0.5c0.1,0.2,0.2,0.4,0.3,0.6c0.3,0.7,0.7,1.5,1,2.2c0.3,0.6,0.5,1.1,0.8,1.7c0.1,0.2,0.2,0.5,0.3,0.7
	c0.2,0.5,0.4,1,0.6,1.5C133.9,476.5,134.3,477.4,134.7,478.4z"/>
<path class="st5" d="M301.3,431.8c-0.2-0.3-0.4-0.7-0.7-1c-0.5-0.7-1.6-0.8-2.2-0.1L283,448.4l-4.1,4.7l-0.9,1l-1.4,1.6l-3,3.5
	l-48.2,6.6c0.2,0.3,0.3,0.7,0.4,1c0.2,0.5,0.3,1,0.4,1.5l6.3,39l2.2,13.3h-2.9l-2.2-13.3h0l-5.6-34.4c-0.1-0.5-0.2-1.1-0.4-1.6
	c-0.1-0.4-0.3-0.8-0.5-1.1c-0.2-0.4-0.4-0.7-0.6-1c-0.4-0.7-0.9-1.3-1.5-1.8c-0.4-0.3-0.7-0.6-1.1-0.9h0l-40,5.5
	c-0.4,0.4-0.8,0.8-1.1,1.2h0c-0.3,0.4-0.6,0.8-0.8,1.3c-1,1.8-1.4,3.9-1,6l4.3,26.7l2.2,13.3h-2.9l-2.2-13.3l-4.9-30.5
	c-0.1-1-0.2-1.9,0-2.8c0-0.4,0.1-0.7,0.2-1.1l-24.9,3.4l-14,1.9c-0.4-1-0.8-2-1.2-2.9c-0.2-0.5-0.4-1-0.6-1.5
	c-0.1-0.2-0.2-0.5-0.3-0.7c-0.3-0.6-0.5-1.1-0.8-1.7c-0.3-0.7-0.7-1.5-1-2.2c-0.1-0.2-0.2-0.4-0.3-0.6l17.3-2.9l6.3-1.1l-9.2-6.4
	l-21.3-14.8l-9.8-6.8l0,0c-0.1-0.2-0.2-0.3-0.3-0.5c-0.3-0.4-0.5-0.9-0.8-1.3c-0.2-0.3-0.3-0.5-0.5-0.8c-2-3.4-3.8-6.2-5.1-8.3
	c-0.3-0.5-0.6-0.9-0.9-1.3c-0.2-0.3-0.4-0.7-0.6-1c-0.1-0.2-0.2-0.4-0.3-0.5c-0.4-0.6-0.7-1-0.8-1.3c0,0,0,0,0,0
	c-0.1-0.1-0.1-0.2-0.2-0.3c0,0,0-0.1-0.1-0.1c0,0,0,0,0,0l29.2-9.7c0,0,0.1,0,0.1,0c0.3-0.1,0.5-0.1,0.7-0.2c0.1,0,0.3-0.1,0.4-0.1
	c0.1,0,0.1,0,0.2,0c0,0,0.1,0,0.1,0c0.2,0,0.4-0.1,0.7-0.1c0,0,0.1,0,0.1,0c0.1,0,0.3,0,0.4,0c0.1,0,0.2,0,0.3,0c0.3,0,0.7,0,1,0
	c0.1,0,0.2,0,0.2,0c0.1,0,0.2,0,0.3,0c0.1,0,0.2,0,0.3,0c0,0,0.1,0,0.1,0c0.2,0,0.3,0,0.4,0.1c0,0,0,0,0,0c0.3,0,0.5,0.1,0.7,0.2
	c0.1,0,0.2,0,0.3,0.1c0.2,0,0.3,0.1,0.5,0.1c0.1,0,0.2,0.1,0.4,0.1c0,0,0.1,0,0.1,0c0.2,0.1,0.3,0.1,0.5,0.2
	c0.2,0.1,0.5,0.2,0.7,0.3c0.2,0.1,0.5,0.2,0.7,0.3c0.1,0.1,0.3,0.2,0.4,0.3c0.1,0.1,0.3,0.2,0.4,0.3c0.1,0.1,0.3,0.2,0.4,0.3
	c0.1,0.1,0.3,0.2,0.4,0.3c0,0,0,0,0,0l0.5-0.2c5.1,9.1,12.6,16.7,21.5,22c0.3,0.2,0.6,0.3,0.9,0.5c2,1.1,4,2.2,6.2,3
	c0.2,0.1,0.5,0.2,0.7,0.3h0l0,0c0.1,0,0.1,0.1,0.2,0.1h0c0.2,0.1,0.3,0.1,0.5,0.2c1.9,0.7,3.8,1.4,5.8,1.9c0.1,0,0.1,0,0.2,0
	c4.9,1.3,10.2,2.1,15.5,2.1c7.4,0,14.5-1.4,21-3.9c0.4-0.2,0.8-0.3,1.2-0.5c2.1-0.9,4.1-1.8,6.1-2.9h0c0,0,0.1,0,0.1,0
	c0.2-0.1,0.3-0.2,0.5-0.3c0,0,0,0,0,0c0.9-0.5,1.8-1.1,2.8-1.7c0,0,0,0,0,0c0,0,0.1,0,0.1,0c0,0,0,0,0,0c0,0,0.1,0,0.1,0
	c0.3-0.2,0.6-0.4,0.9-0.6c0,0,0,0,0,0c0.4-0.3,0.9-0.6,1.3-0.9c7.1-5,13.1-11.6,17.4-19.3l0.5,0.2c0,0,0,0,0,0
	c0.1-0.1,0.3-0.2,0.4-0.3c0.1-0.1,0.3-0.2,0.4-0.3c0.1-0.1,0.3-0.2,0.4-0.3c0.1-0.1,0.3-0.2,0.4-0.3c0.2-0.1,0.5-0.2,0.7-0.3
	c0.2-0.1,0.5-0.2,0.7-0.3c0.2-0.1,0.3-0.1,0.5-0.2c0,0,0.1,0,0.1,0c0.1-0.1,0.2-0.1,0.4-0.1c0.2-0.1,0.3-0.1,0.5-0.1
	c0.1,0,0.2,0,0.3-0.1c0.3-0.1,0.5-0.1,0.7-0.2c0.4-0.1,0.8-0.1,1.2-0.1c0,0,0,0,0,0c0.1,0,0.2,0,0.2,0c0.3,0,0.7,0,1,0
	c0.1,0,0.2,0,0.3,0c0.1,0,0.3,0,0.4,0c0,0,0.1,0,0.1,0c0.2,0,0.4,0,0.6,0.1c0.1,0,0.1,0,0.2,0c0.1,0,0.1,0,0.2,0
	c0.1,0,0.3,0,0.4,0.1c0.3,0,0.5,0.1,0.7,0.2c0.1,0,0.2,0,0.3,0.1l29.1,9.7c0.4,0.1,0.8,0.3,1.2,0.5c0.2,0.1,0.5,0.2,0.7,0.3
	c0.4,0.1,0.7,0.3,1.1,0.5c0.3,0.1,0.5,0.3,0.7,0.4c0.4,0.2,0.7,0.4,1.1,0.6c0.4,0.2,0.7,0.4,1.1,0.7c0.4,0.3,0.8,0.6,1.2,0.9
	c0.2,0.2,0.4,0.3,0.6,0.5c0.2,0.2,0.5,0.4,0.7,0.6c0.2,0.2,0.4,0.3,0.5,0.5h0c0.1,0.1,0.2,0.2,0.3,0.3c0.3,0.3,0.5,0.5,0.7,0.8
	c0.1,0.2,0.3,0.3,0.4,0.5c0.2,0.2,0.3,0.4,0.5,0.6c0.3,0.3,0.5,0.7,0.8,1c0.3,0.4,0.5,0.7,0.8,1.1c0.1,0.1,0.1,0.2,0.2,0.3
	C301.2,431.6,301.3,431.7,301.3,431.8z"/>
<path class="st6" d="M90.1,434.4c-0.2,0.4-0.3,0.7-0.5,1.1c0-0.1,0.1-0.3,0.2-0.4C89.9,434.9,90,434.6,90.1,434.4z"/>
<path class="st6" d="M91.6,431.5c-0.1,0.1-0.1,0.2-0.2,0.3c0,0,0,0,0,0c-0.1,0.2-0.2,0.3-0.3,0.5c0,0,0,0.1,0,0.1
	c-0.1,0.2-0.2,0.4-0.3,0.6c0,0.1-0.1,0.1-0.1,0.2c0.1-0.2,0.2-0.5,0.4-0.7c0.1-0.1,0.1-0.2,0.2-0.3c0,0,0.1-0.1,0.1-0.2
	C91.4,431.9,91.5,431.7,91.6,431.5z"/>
<path class="st6" d="M95.3,483.8l-12.1,1.7c-0.2-0.2-0.4-0.6-0.4-0.9l0-0.1l0.2-2v0L95.3,483.8z"/>
<path class="st6" d="M301.3,431.8c0-0.1-0.1-0.2-0.2-0.3c0.6,0.9,1.1,1.8,1.5,2.8c-0.1-0.2-0.2-0.4-0.3-0.7
	c-0.1-0.2-0.2-0.4-0.3-0.6c-0.1-0.2-0.2-0.3-0.3-0.5c0,0,0-0.1-0.1-0.1C301.6,432.2,301.4,432,301.3,431.8z"/>
<path class="st6" d="M303.2,435.7c-0.2-0.5-0.3-0.9-0.6-1.4c0,0.1,0.1,0.2,0.1,0.3c0.1,0.2,0.1,0.3,0.2,0.5c0.1,0.1,0.1,0.2,0.1,0.3
	c0.1,0.2,0.2,0.5,0.3,0.7c0,0,0,0,0,0c0,0,0-0.1,0-0.1C303.3,435.9,303.2,435.8,303.2,435.7z"/>
<path class="st6" d="M303.4,436.3c0,0,0-0.1,0-0.1l0,0c0,0.1,0.1,0.2,0.1,0.3c0,0,0,0.1,0,0.1C303.5,436.5,303.5,436.4,303.4,436.3z
	"/>
<path class="st6" d="M303.7,437.1c0-0.1-0.1-0.2-0.1-0.3C303.6,436.8,303.7,436.9,303.7,437.1c0.1,0.2,0.1,0.4,0.2,0.6
	c0.1,0.3,0.1,0.5,0.2,0.8c0,0.2,0.1,0.4,0.1,0.7c0-0.2-0.1-0.4-0.1-0.6c-0.1-0.4-0.2-0.9-0.4-1.3
	C303.7,437.2,303.7,437.1,303.7,437.1z"/>
<path class="st0" d="M304.5,440.7c0,0.1,0,0.2,0,0.3l0.6,4.4l0.5,4.1l0.3,2.3l0.4,3"/>
<polyline class="st0" points="309.7,482.5 309.7,482.5 309.7,482.5 309.7,482.5 "/>
<path class="st7" d="M117.7,297.3c0.3-6.1,2.7-11.7,6.5-16.1c0,0,0,0,0,0c0.2-0.2,0.3-0.4,0.5-0.6l0,0c0.2-0.2,0.3-0.4,0.5-0.5v0
	c0,0,0,0,0,0c0.9-0.8,1.9-1.7,3-2.4c2.6-1,5.5-1.6,8.5-1.6h14c1.1,0,2.2,0.1,3.4,0.2c0.3,0,0.6,0,0.9,0.1c0.5,0,1,0.1,1.5,0.1
	c0.4,0,0.8,0.1,1.2,0.1c0.3,0,0.5,0.1,0.8,0.1c0.2,0,0.5,0,0.7-0.1c3.3-1.5,6.9-3,10.7-4.4c3-1.2,6.2-2.4,9.5-3.6
	c20.4-7.2,45.2-13.5,70.1-13.5h-107c-0.3,0-0.6,0-1,0c-0.4,0-0.8,0.1-1.2,0.1c-0.1,0-0.2,0-0.3,0c-0.2,0-0.5,0.1-0.7,0.1
	c-0.2,0-0.4,0.1-0.7,0.1c-0.1,0-0.2,0-0.2,0c-0.2,0-0.3,0.1-0.5,0.1c-0.1,0-0.2,0-0.4,0.1c-0.1,0-0.2,0.1-0.4,0.1v0
	c-0.4,0.1-0.8,0.2-1.3,0.3c-0.4,0.1-0.8,0.2-1.2,0.3c-0.4,0.1-0.8,0.3-1.2,0.4c-0.3,0.1-0.6,0.2-0.9,0.3c-2.9,1.1-5.5,2.6-7.9,4.5
	c-0.2,0.2-0.5,0.4-0.7,0.6c-0.1,0.1-0.2,0.1-0.3,0.2c-0.2,0.1-0.3,0.3-0.5,0.4c0,0-0.1,0.1-0.1,0.1c-0.2,0.1-0.3,0.3-0.5,0.4
	c-0.3,0.3-0.5,0.5-0.8,0.8c0,0,0,0-0.1,0c-0.6,0.6-1.2,1.3-1.8,2c-0.2,0.2-0.4,0.5-0.5,0.7c0,0.1-0.1,0.1-0.1,0.2l-0.4,0.6
	c-0.3,0.3-0.5,0.7-0.7,1c-0.1,0.1-0.1,0.2-0.2,0.3c-0.1,0.2-0.2,0.4-0.3,0.5c-0.1,0.2-0.3,0.4-0.4,0.7c-0.1,0.2-0.2,0.3-0.3,0.5
	c0,0.1-0.1,0.2-0.1,0.2c-0.2,0.3-0.4,0.7-0.5,1.1c0,0,0,0.1,0,0.1v0c0,0,0,0.1-0.1,0.1c-0.1,0.2-0.2,0.3-0.2,0.5
	c-0.1,0.2-0.1,0.3-0.2,0.5c0,0,0,0,0,0c0,0.1-0.1,0.1-0.1,0.2c0,0.1,0,0.1-0.1,0.2c0,0.1,0,0.1-0.1,0.2c0,0.1-0.1,0.2-0.1,0.3
	l-0.1,0.4c-0.1,0.1-0.1,0.3-0.2,0.4c0,0,0,0.1-0.1,0.2c0,0,0,0.1,0,0.2c0,0.1,0,0.1-0.1,0.2c0,0.1-0.1,0.3-0.1,0.4
	c0,0.1,0,0.1-0.1,0.2c0,0,0,0,0,0.1c0,0.1-0.1,0.2-0.1,0.3c0,0.1,0,0.2-0.1,0.3c0,0.1-0.1,0.2-0.1,0.4c0,0.2-0.1,0.4-0.2,0.6
	c0,0.1,0,0.1,0,0.2c0,0.1,0,0.2-0.1,0.3v0c0,0,0,0,0,0c0,0,0,0,0,0v0c0,0,0,0,0,0c0,0,0,0.1,0,0.1c0,0,0,0.1,0,0.2
	c-0.3,1.3-0.5,2.5-0.6,3.8c0,0.1,0,0.1,0,0.2c0,0,0,0.1,0,0.1c0,0.1,0,0.1,0,0.2c0,0.1,0,0.3,0,0.4c0,0.1,0,0.1,0,0.2
	c0,0.1,0,0.1,0,0.1v0.3c0,0.1,0,0.1,0,0.2v0.1l0,0v0.1c0,0.2,0,0.4,0,0.7V295v1.3c-0.1,0-0.1,0-0.2,0c-0.3,0-0.5,0-0.8,0
	c0,0-0.1,0-0.1,0c-0.1,0-0.2,0-0.3,0c0,0,0,0,0,0h-0.1c0,0-0.1,0-0.1,0c-0.1,0-0.2,0-0.2,0c-0.3,0-0.6,0.1-1,0.1
	c-0.2,0-0.3,0-0.5,0.1c0,0,0,0-0.1,0c-0.1,0-0.3,0.1-0.4,0.1c-0.2,0-0.3,0-0.4,0.1c-0.2,0-0.4,0.1-0.5,0.1c-0.3,0.1-0.6,0.2-0.8,0.3
	c-0.2,0.1-0.4,0.1-0.5,0.2c-0.2,0.1-0.4,0.2-0.6,0.2c-0.4,0.2-0.8,0.4-1.2,0.6c-0.3,0.1-0.5,0.3-0.7,0.4c-0.2,0.1-0.4,0.2-0.6,0.4
	c-0.2,0.1-0.4,0.2-0.6,0.4c-0.2,0.2-0.4,0.3-0.6,0.5c0,0-0.1,0-0.1,0.1c-0.2,0.1-0.4,0.3-0.5,0.4c-0.1,0.1-0.3,0.2-0.4,0.3
	c-0.2,0.2-0.3,0.3-0.5,0.5c-0.2,0.2-0.4,0.4-0.6,0.6c-0.2,0.2-0.4,0.4-0.6,0.6c-0.2,0.2-0.3,0.3-0.4,0.5c-0.1,0.1-0.2,0.3-0.3,0.4
	c0,0,0,0,0,0.1c0,0,0,0,0,0c-0.1,0.1-0.2,0.2-0.3,0.3c0,0,0,0.1-0.1,0.1l0,0c0,0,0,0,0,0c-0.6,0.8-1.1,1.6-1.5,2.5
	c0,0.1-0.1,0.2-0.2,0.3c-0.1,0.1-0.1,0.3-0.2,0.4c-0.1,0.1-0.1,0.3-0.2,0.4c-0.1,0.2-0.2,0.4-0.2,0.6c-0.1,0.1-0.1,0.3-0.2,0.5
	c0,0,0,0.1,0,0.1c-0.1,0.1-0.1,0.3-0.2,0.5c0,0.2-0.1,0.3-0.1,0.5c0,0,0,0.1,0,0.2c-0.1,0.3-0.2,0.7-0.2,1c0,0.2-0.1,0.3-0.1,0.5
	c0,0,0,0,0,0c0,0.2-0.1,0.4-0.1,0.6c0,0.1,0,0.2,0,0.4c0,0.1,0,0.2,0,0.3c0,0.2,0,0.4-0.1,0.6c0,0.1,0,0.2,0,0.3c0,0.3,0,0.6,0,0.8
	c0,9.4,7.3,17,16.5,17.7c0.7,0,1.3,0.6,1.3,1.3v4.6c0,14.3,8.6,27.2,21.8,32.7l24.6,10.3l0.8,0.3l0.2,0.1l12.5,5.2
	c0.5,0.2,1,0.4,1.5,0.6c0.6,0.2,1.2,0.4,1.8,0.7c0.8,0.3,1.6,0.5,2.4,0.8c0,0,0,0,0,0c-3.7-2.7-7.1-5.3-10.2-7.8
	c-11.3-9-19.3-16.8-24.4-22.3c-3.9-4.2-6.4-9.6-7.1-15.3c-0.2-1.2-0.3-2.4-0.3-3.7v-2.7c0-0.7-0.5-1.3-1.2-1.4
	c0.4,0,0.8,0.1,1.2,0.1c0.4,0,0.9,0,1.3,0c1.2,0,2.5-0.1,3.7-0.2c-0.4-0.1-0.9-0.1-1.3-0.2c-7.5-1.2-13.8-6.3-18.1-14.5
	c-3.4-6.4-5.4-14.6-5.4-21.9C117.7,298.1,117.7,297.7,117.7,297.3C117.7,297.3,117.7,297.3,117.7,297.3z"/>
<g>
	<path class="st5" d="M131.2,478.9l-35.8,4.9h0l-12.3-1.4v0l0.3-2.4l0.3-2.4l0.1-1l0.1-0.8l6.9-1l20.1-2.8l16.6-2.8
		c0.1,0.2,0.2,0.3,0.3,0.5c0,0,0,0.1,0.1,0.1c0.2,0.3,0.3,0.5,0.5,0.8c0.2,0.3,0.4,0.6,0.5,1c0.2,0.4,0.5,0.9,0.6,1.4
		c0.1,0.2,0.2,0.4,0.2,0.6c0,0,0,0.1,0,0.1c0.1,0.3,0.2,0.6,0.3,0.9c0.1,0.4,0.3,0.8,0.4,1.2C130.8,476.9,131,477.9,131.2,478.9z"/>
	<polygon class="st8" points="95.3,483.8 83.2,485.5 82.7,485.6 82.8,484.6 82.8,484.4 83.1,482.5 83.1,482.5 	"/>
</g>
<g>
	<line class="st0" x1="78.7" y1="487.2" x2="78.7" y2="487.2"/>
	<path class="st9" d="M95.3,483.8l-12.1,1.7l-0.5,0.1l-3.8,0.5l0.1-0.6c0-0.2,0.1-0.4,0.1-0.6c0-0.1,0.1-0.2,0.1-0.3
		c0-0.1,0.1-0.2,0.1-0.3c0.2-0.3,0.4-0.6,0.6-0.9c0.1-0.1,0.2-0.1,0.2-0.2c0.1,0,0.1-0.1,0.2-0.1c0,0,0.1-0.1,0.2-0.1
		c0.2-0.1,0.3-0.2,0.5-0.3l0,0c0.2-0.1,0.3-0.1,0.5-0.2c0.1,0,0.2,0,0.3-0.1c0.1,0,0.2,0,0.3,0c0.1,0,0.2,0,0.3,0c0.1,0,0.3,0,0.4,0
		l0.2,0h0l0.1,0L95.3,483.8z"/>
</g>
<g>
	<path class="st5" d="M306.2,454.8l-32.7,4.5l3-3.5l1.4-1.6l0.9-1h0l4.1-4.7h0l15.5-17.9c0.6-0.7,1.7-0.6,2.2,0.1
		c0.2,0.3,0.5,0.7,0.7,1c0.1,0.2,0.3,0.5,0.4,0.7c0,0.1,0.1,0.1,0.1,0.1c0.1,0.2,0.2,0.3,0.3,0.5c0.1,0.2,0.2,0.4,0.3,0.6
		c0.1,0.2,0.2,0.4,0.3,0.7c0,0.1,0.1,0.2,0.1,0.3c0.1,0.2,0.1,0.3,0.2,0.5c0.1,0.1,0.1,0.2,0.1,0.3c0,0,0,0.1,0.1,0.1c0,0,0,0,0,0.1
		c0,0,0,0,0,0.1c0,0.1,0.1,0.2,0.1,0.3c0,0,0,0.1,0,0.1c0,0.1,0,0.1,0,0.1c0,0.1,0.1,0.2,0.1,0.3c0,0,0,0.1,0,0.1
		c0,0.1,0.1,0.2,0.1,0.3c0,0.1,0,0.1,0,0.2c0.1,0.4,0.3,0.9,0.4,1.3c0.1,0.2,0.1,0.4,0.1,0.6c0,0,0,0.1,0,0.2
		c0.1,0.5,0.2,0.9,0.2,1.4c0,0.1,0,0.2,0,0.3l0.5,4.4l0.5,4.1l0.3,2.3L306.2,454.8z"/>
	<path class="st8" d="M303.3,436c-0.1-0.2-0.2-0.4-0.2-0.6C303.2,435.6,303.3,435.8,303.3,436c0,0.1,0,0.1,0,0.1
		C303.4,436.1,303.3,436.1,303.3,436z"/>
	<path class="st8" d="M303.4,436.3c0,0,0-0.1,0-0.1l0,0c0,0.1,0.1,0.2,0.1,0.3c0,0,0,0.1,0,0.1C303.5,436.5,303.5,436.4,303.4,436.3
		z"/>
	<path class="st8" d="M303.7,437.1c0-0.1-0.1-0.2-0.1-0.3C303.6,436.8,303.7,436.9,303.7,437.1c0.1,0.2,0.1,0.4,0.2,0.6
		c0.1,0.3,0.1,0.5,0.2,0.8c0,0.2,0.1,0.4,0.1,0.7c0-0.2-0.1-0.4-0.1-0.6c-0.1-0.4-0.2-0.9-0.4-1.3
		C303.7,437.2,303.7,437.1,303.7,437.1z"/>
	<path class="st0" d="M304.5,440.7c0,0.1,0,0.2,0,0.3l0.6,4.4l0.5,4.1l0.3,2.3l0.4,3"/>
</g>
<g>
	<polyline class="st0" points="309.7,482.5 310,482.4 309.7,482.5 309.7,482.5 309.7,482.5 	"/>
</g>
<g>
	<path class="st10" d="M302.7,252.3c0,0.8,0,1.5-0.1,2.2c0,0.4,0,0.9,0,1.3c0,0.7,0,1.3-0.1,2c-0.1,1.3-0.1,2.6-0.3,3.8
		c0,0.5-0.1,0.9-0.1,1.4c-0.3,3.1-0.6,6-1,8.8c-0.1,0.5-0.2,1-0.2,1.5c-0.2,1.4-0.5,2.7-0.7,4c0,0.2-0.1,0.5-0.1,0.7
		c-0.7,3.8-1.5,7.3-2.3,10.5c-0.1,0.4-0.2,0.8-0.3,1.1c-0.3,1.1-0.6,2.1-0.9,3.1c-0.1,0.4-0.3,0.8-0.4,1.2c-1.1,3.7-2.3,6.8-3.2,9
		c0,0,0,0.1,0,0.1c-1.4-1.9-3.2-3.4-5.3-4.6c-1.4-0.8-2.9-1.4-4.5-1.8c-0.2,0-0.3-0.1-0.5-0.1c-0.1,0-0.3-0.1-0.4-0.1
		c-0.4-0.1-0.8-0.1-1.2-0.2c-0.2,0-0.3,0-0.5,0c-0.2,0-0.5,0-0.7-0.1h0c-0.3,0-0.6,0-0.8,0v-11.8c0-2.6-0.3-5-1-7.4
		c-3.3-12.7-14.8-22.1-28.6-22.1h-53.1c-21.3,0-38.4,5.7-52.1,13.4c-1.5,0.8-3,1.7-4.4,2.6c-1,0.6-2.3-0.3-2.1-1.4c0,0,0,0,0,0
		c0.1-0.3,0.2-0.7,0.2-1.1c0.7-2.8,1.8-6.8,3.8-11.4c0.4-0.9-0.3-2-1.4-1.9c-0.6,0-1.2,0.1-1.8,0.2c-0.1,0-0.2,0-0.2,0
		c-0.2,0-0.3,0.1-0.5,0.1c-0.1,0-0.2,0-0.4,0.1c-0.1,0-0.2,0-0.4,0.1c-5.9,1.2-11.2,4.2-15.3,8.3c-1.4,1.4-2.6,2.9-3.6,4.5
		c-0.1,0.1-0.1,0.2-0.2,0.3c-0.1,0.2-0.2,0.4-0.3,0.5c-0.1,0.2-0.3,0.4-0.4,0.7c-0.1,0.2-0.2,0.3-0.3,0.5c0,0.1-0.1,0.2-0.1,0.2
		c-0.2,0.3-0.4,0.7-0.5,1.1c0,0,0,0.1,0,0.1v0c0,0,0,0.1-0.1,0.1c-0.1,0.2-0.2,0.3-0.2,0.5c-0.1,0.2-0.1,0.3-0.2,0.5c0,0,0,0,0,0
		c0,0.1-0.1,0.1-0.1,0.2c0,0.1,0,0.1-0.1,0.2c0,0.1,0,0.1-0.1,0.2c0,0.1-0.1,0.2-0.1,0.3l-0.1,0.4c-0.1,0.1-0.1,0.3-0.2,0.4
		c0,0,0,0.1-0.1,0.2c0,0,0,0.1,0,0.2c0,0.1,0,0.1-0.1,0.2c0,0.1-0.1,0.3-0.1,0.4h0c0,0.1,0,0.1-0.1,0.2c0,0,0,0,0,0.1
		c0,0.1-0.1,0.2-0.1,0.3c0,0.1,0,0.2-0.1,0.3c0,0.1-0.1,0.2-0.1,0.4c0,0.2-0.1,0.4-0.2,0.6c0,0.1,0,0.1,0,0.2c0,0.1,0,0.2-0.1,0.3v0
		c0,0,0,0,0,0c0,0,0,0,0,0v0c0,0,0,0,0,0c0,0,0,0.1,0,0.1c0,0,0,0.1,0,0.2c-0.3,1.3-0.5,2.5-0.6,3.8c0,0.1,0,0.1,0,0.2v0.1
		c0,0.1,0,0.1,0,0.2c0,0.1,0,0.3,0,0.4c0,0.1,0,0.1,0,0.2c0,0.1,0,0.1,0,0.1v0.3c0,0.1,0,0.1,0,0.2v0.1c0,0,0,0.1,0,0.1
		c0,0.2,0,0.4,0,0.7v11.8c-0.1,0-0.1,0-0.2,0c-0.3,0-0.5,0-0.8,0c0,0-0.1,0-0.1,0c-0.1,0-0.2,0-0.3,0c0,0,0,0,0,0
		c-0.2,0-0.3,0-0.5,0c-0.3,0-0.6,0.1-1,0.1c-0.2,0-0.3,0-0.5,0.1c0,0,0,0-0.1,0c-0.1,0-0.3,0.1-0.4,0.1c-0.3,0.1-0.5,0.1-0.8,0.2
		c-0.6,0.2-1.1,0.3-1.7,0.6c-0.1,0-0.3,0.1-0.4,0.1c-0.4,0.2-0.9,0.4-1.3,0.6c0,0-0.1,0-0.1,0c-0.2,0.1-0.5,0.3-0.7,0.4
		c-0.1,0.1-0.3,0.2-0.4,0.2c-0.2,0.1-0.3,0.2-0.5,0.3c-0.1,0-0.1,0.1-0.2,0.1c-0.2,0.1-0.4,0.3-0.6,0.4c0,0-0.1,0-0.1,0.1
		c-0.2,0.1-0.3,0.3-0.5,0.4c-0.2,0.1-0.3,0.3-0.5,0.4c-0.1,0.1-0.3,0.3-0.4,0.4c-0.4,0.4-0.8,0.8-1.2,1.2c0,0,0,0,0-0.1
		c0-0.1-0.1-0.2-0.1-0.3c0-0.1,0-0.2-0.1-0.3c0-0.2-0.1-0.4-0.1-0.5c0-0.1,0-0.1,0-0.2c0,0,0-0.1,0-0.1c0,0,0-0.1,0-0.1
		c0-0.1-0.1-0.2-0.1-0.3c0-0.2-0.1-0.5-0.2-0.7c0-0.1,0-0.2-0.1-0.3c0-0.2-0.1-0.3-0.1-0.5c0-0.1,0-0.2-0.1-0.3
		c-0.2-0.9-0.4-1.9-0.7-2.9c0-0.1,0-0.2-0.1-0.3c-0.2-0.7-0.3-1.4-0.5-2.1c-0.1-0.3-0.1-0.6-0.2-1s-0.2-0.6-0.2-1c0-0.1,0-0.1,0-0.1
		c-0.1-0.3-0.1-0.5-0.2-0.8c-0.1-0.4-0.2-0.7-0.3-1.1c-0.1-0.3-0.1-0.7-0.2-1c0-0.2-0.1-0.3-0.1-0.5c0-0.1,0-0.1-0.1-0.2
		c0-0.1,0-0.2-0.1-0.3c0,0,0-0.1,0-0.1c-0.1-0.3-0.1-0.6-0.2-0.8c0,0,0,0,0-0.1c-0.1-0.3-0.2-0.7-0.2-1c0-0.1,0-0.1,0-0.2
		c-0.1-0.5-0.2-1-0.3-1.5c-0.4-1.8-0.8-3.7-1.2-5.6c-0.1-0.5-0.2-1.1-0.3-1.6c0-0.2-0.1-0.4-0.1-0.5c-0.1-0.4-0.1-0.7-0.2-1.1
		c-0.1-0.5-0.2-1-0.3-1.4c-0.2-1-0.4-1.9-0.6-2.9c-0.1-0.5-0.2-1-0.3-1.6c0-0.2-0.1-0.4-0.1-0.6c0,0,0,0,0-0.1
		c0-0.2-0.1-0.4-0.1-0.5c0-0.2,0-0.3-0.1-0.5c-0.1-0.3-0.1-0.7-0.2-1.1c-0.5-2.7-0.9-5.4-1.3-7.9c-0.1-0.4-0.1-0.8-0.2-1.2
		c-0.2-1.7-0.5-3.3-0.7-4.8c0-0.3-0.1-0.6-0.1-0.9c0-0.3-0.1-0.6-0.1-0.9c-0.1-0.5-0.1-1-0.2-1.5c0,0,0-0.1,0-0.2c0,0,0-0.1,0-0.1
		c0-0.1,0-0.2,0-0.3v-0.1c0-0.1,0-0.1,0-0.2c0-0.2,0-0.4,0-0.6c0-0.3-0.1-0.6-0.1-0.8c0-0.3,0-0.7-0.1-1v-0.1c0-0.4,0-0.7,0-1.1
		c0-0.5,0-1,0-1.5c0-32,23.8-35.1,28.7-35.4c0.5,0,1-0.4,1.2-0.9l11.1-27.8c0.2-0.6,0.8-0.9,1.4-0.9c19.3,1.4,37.5,5.2,40,5.8
		c0.2,0,0.4,0,0.6,0c6.3-1.5,10-4.5,11.1-5.5c0.3-0.2,0.6-0.4,0.9-0.4c33.1,0.1,59.2,6.3,77.8,12.9c0.3,0.1,0.6,0.1,0.9,0l18-6
		l2.1-0.7c0.6-0.2,1.3,0,1.6,0.6c1.3,2.1,4.2,8,5.1,18.1c0,0.4,0.3,0.8,0.7,1.1c2.6,1.6,4.3,2.7,5.1,3.2c0.3,0.2,0.5,0.4,0.5,0.8
		C301.4,224.2,302.9,239.1,302.7,252.3z"/>
</g>
<g>
	<path class="st11" d="M283.5,187.1c-9.4,17.2-29,20.1-33.2,20.6c-0.5,0-0.9,0.3-1.1,0.8c-1.2,2.5-7,11.1-29.2,17
		c-20.3,5.4-44.4,13-65.1,29.5c-4.9,3.9-9.6,8.4-14,13.4c-0.3,0.4-0.6,0.7-0.9,1.1c-0.6,0.7-1.5,0.6-2,0c-0.3-0.3-0.4-0.6-0.3-1v0
		c0.4-4.2,1.4-8,2.4-11.2c0.3-1-0.5-1.9-1.5-1.8c-7.7,1.3-14.3,5.4-18.8,11.3c-0.1,0.1-0.2,0.3-0.3,0.4c-0.8,1.1-1.5,2.2-2.1,3.3
		c-0.2,0.3-0.4,0.7-0.5,1.1c0,0,0,0.1,0,0.1v0c0,0,0,0.1-0.1,0.1c-0.2,0.3-0.3,0.6-0.4,1c0,0,0,0,0,0c-0.1,0.1-0.1,0.2-0.2,0.4
		c0,0.1,0,0.1-0.1,0.2c0,0.1-0.1,0.2-0.1,0.3l-0.1,0.4c-0.1,0.2-0.2,0.5-0.3,0.7c0,0.1,0,0.1-0.1,0.2c0,0.1-0.1,0.3-0.1,0.4
		c0,0.1,0,0.2-0.1,0.3c0,0.1-0.1,0.2-0.1,0.3c0,0.1,0,0.2-0.1,0.3c0,0.1-0.1,0.2-0.1,0.4c0,0.2-0.1,0.4-0.2,0.6c0,0.1,0,0.1,0,0.2
		c0,0.1,0,0.2-0.1,0.3v0c0,0,0,0,0,0c0,0,0,0,0,0c0,0,0,0,0,0c0,0,0,0.1,0,0.1c0,0,0,0.1,0,0.2c-0.3,1.3-0.5,2.5-0.6,3.8
		c0,0.1,0,0.1,0,0.2c0,0,0,0,0,0v0.1c0,0.1,0,0.1,0,0.2c0,0.1,0,0.3,0,0.4c0,0.1,0,0.1,0,0.2c0,0.1,0,0.1,0,0.1v0.3
		c0,0.1,0,0.1,0,0.2s0,0.1,0,0.1v0.1c0,0.2,0,0.4,0,0.7v11.8c-0.1,0-0.1,0-0.2,0c-0.3,0-0.5,0-0.8,0c0,0-0.1,0-0.1,0
		c-0.1,0-0.2,0-0.3,0c-0.2,0-0.3,0-0.5,0c-0.3,0-0.6,0.1-1,0.1c-0.3,0-0.6,0.1-0.9,0.2c-0.3,0.1-0.5,0.1-0.8,0.2
		c-0.6,0.2-1.1,0.3-1.7,0.6c-0.1,0-0.3,0.1-0.4,0.1c-0.4,0.2-0.9,0.4-1.3,0.6v0c0,0-0.1,0-0.1,0c-0.2,0.1-0.5,0.3-0.7,0.4
		c-0.1,0.1-0.3,0.2-0.4,0.2c-0.2,0.1-0.3,0.2-0.5,0.3c-0.1,0-0.1,0.1-0.2,0.1c-0.2,0.1-0.4,0.3-0.6,0.4c0,0-0.1,0-0.1,0.1
		c-0.2,0.1-0.3,0.3-0.5,0.4c-0.2,0.1-0.3,0.3-0.5,0.4c-0.1,0.1-0.3,0.3-0.4,0.4c-0.4,0.4-0.8,0.8-1.2,1.2c0,0,0,0,0-0.1
		c0-0.1-0.1-0.2-0.1-0.3c-0.1-0.3-0.1-0.6-0.2-0.9c0-0.1,0-0.1,0-0.2c0,0,0-0.1,0-0.1c0-0.1-0.1-0.3-0.1-0.4c0-0.2-0.1-0.5-0.2-0.7
		c0-0.1,0-0.2-0.1-0.3c0-0.2-0.1-0.3-0.1-0.5c0-0.1,0-0.2-0.1-0.3c-0.2-0.9-0.4-1.9-0.7-2.9c0-0.1,0-0.2-0.1-0.3
		c-0.2-0.7-0.3-1.4-0.5-2.1c-0.1-0.3-0.1-0.6-0.2-1s-0.2-0.6-0.2-1c0-0.1,0-0.1,0-0.1c-0.1-0.3-0.1-0.5-0.2-0.8
		c-0.1-0.4-0.2-0.7-0.3-1.1c-0.1-0.3-0.1-0.7-0.2-1c0-0.2-0.1-0.5-0.2-0.7c0-0.1,0-0.2-0.1-0.3c0,0,0-0.1,0-0.1
		c-0.1-0.3-0.1-0.6-0.2-0.8c0,0,0,0,0-0.1c-0.1-0.3-0.2-0.7-0.2-1c0-0.1,0-0.1,0-0.2c-0.1-0.5-0.2-1-0.3-1.5
		c-0.4-1.8-0.8-3.7-1.2-5.6c-0.1-0.5-0.2-1.1-0.3-1.6c0-0.2-0.1-0.4-0.1-0.5c-0.1-0.4-0.1-0.7-0.2-1.1c-0.1-0.5-0.2-1-0.3-1.4
		c-0.2-1-0.4-1.9-0.6-2.9c-0.1-0.5-0.2-1-0.3-1.6c0-0.2-0.1-0.4-0.1-0.6c0,0,0,0,0-0.1c0-0.2-0.1-0.4-0.1-0.5c0-0.2,0-0.3-0.1-0.5
		c-0.1-0.3-0.1-0.7-0.2-1.1c-0.5-2.7-0.9-5.4-1.3-7.9c-0.1-0.4-0.1-0.8-0.2-1.2c-0.2-1.7-0.5-3.3-0.7-4.8c0-0.3-0.1-0.6-0.1-0.9
		c0-0.3-0.1-0.6-0.1-0.9c-0.1-0.5-0.1-1-0.2-1.5c0,0,0-0.1,0-0.2c0,0,0-0.1,0-0.1c0-0.1,0-0.2,0-0.3v-0.1c0-0.1,0-0.1,0-0.2
		c0-0.2,0-0.4,0-0.6c0-0.3-0.1-0.6-0.1-0.8c0-0.3,0-0.7-0.1-1v-0.1c0-0.4,0-0.7,0-1.1c0-0.5,0-1,0-1.5c0-32,23.8-35.1,28.7-35.4
		c0.5,0,1-0.4,1.2-0.9l11.1-27.8c0.2-0.6,0.8-0.9,1.4-0.9c19.3,1.4,37.5,5.2,40,5.8c0.2,0,0.4,0,0.6,0c6.3-1.5,10-4.5,11.1-5.5
		c0.3-0.2,0.6-0.4,0.9-0.4c33.1,0.1,59.2,6.3,77.8,12.9c0.3,0.1,0.6,0.1,0.9,0l18-6C283.1,184.7,284.1,186,283.5,187.1z"/>
</g>
<g>
	<g>
		<g>
			<path d="M275.8,297.7L275.8,297.7c-0.2-6.2-2.6-11.9-6.4-16.3c0,0,0,0,0,0c-0.2-0.2-0.4-0.5-0.6-0.7l0-0.1
				c-0.4-0.4-0.8-0.8-1.3-1.3c-0.7-0.6-1.4-1.1-2.2-1.7c-4-2.7-9.5-4.7-15.9-5.7c-0.2,0-0.4,0-0.6,0c-1.1,0-2.3,0-3.5,0
				c-1.4,0-2.8,0-4.3,0c-1.4,0-2.9,0-4.4,0.1h-79.6c-1.5,0-3-0.1-4.4-0.1c-0.4,0-0.8,0-1.3,0c-1,0-2,0-3,0h0c-0.8,0-1.6,0-2.3,0
				h-1.2c-0.2,0-0.4,0-0.5,0c-6.4,1-11.9,3-15.9,5.6c-1.1,0.7-2.1,1.6-3,2.4c0,0,0,0,0,0v0c-0.2,0.2-0.4,0.3-0.5,0.5l0,0
				c-0.2,0.2-0.3,0.4-0.5,0.6c0,0,0,0,0,0c-3.8,4.4-6.2,9.9-6.5,16.1c0,0,0,0,0,0c0,0.4,0,0.7,0,1.1c0,7.3,2,15.5,5.4,21.9
				c4.3,8.3,10.6,13.3,18.1,14.5c0.4,0.1,0.8,0.1,1.3,0.2c1,0.1,2,0.2,3,0.2c0.3,0,0.6,0,1,0c22,0,43.5-21.1,45.6-38.4
				c0.1-0.3,0.1-0.6,0.1-0.9c1.4-0.8,3-1.2,4.7-1.2s3.2,0.4,4.7,1.2c0,0.3,0,0.6,0.1,0.9c2.2,17.3,23.7,38.4,45.6,38.4c0,0,0,0,0,0
				c1.3,0,2.6-0.1,3.9-0.2h0c0.4-0.1,0.8-0.1,1.3-0.2c7.5-1.2,13.8-6.3,18.1-14.5c3.3-6.4,5.3-14.6,5.3-21.9
				C275.8,298.2,275.8,297.9,275.8,297.7z M185.4,296.1c-0.1,1.1-0.4,2.2-0.7,3.4c-0.2,0.7-0.4,1.4-0.7,2.1c0,0,0,0,0,0.1
				c-0.1,0.4-0.3,0.8-0.5,1.1c-0.2,0.4-0.3,0.8-0.5,1.1c-0.5,1.1-1.2,2.3-1.9,3.4c-0.7,1.1-1.5,2.3-2.3,3.4c-0.3,0.3-0.5,0.7-0.8,1
				c-0.1,0.1-0.2,0.2-0.2,0.3c-0.2,0.3-0.5,0.6-0.8,0.9c-0.3,0.4-0.6,0.7-1,1.1c0,0,0,0,0,0.1c-0.4,0.5-0.8,0.9-1.3,1.3
				c-0.3,0.3-0.6,0.6-0.9,0.9c-0.2,0.2-0.4,0.4-0.7,0.7c-0.4,0.3-0.7,0.7-1.1,1c-8,7-17.3,11-25.7,11c-0.4,0-0.8,0-1.2,0
				c-1,0-2-0.2-3-0.3c-6.8-1.1-11-6.6-13.3-11.1c-2.9-5.5-4.6-12.6-4.6-19c0-0.9,0.1-1.8,0.2-2.8c0-0.4,0.1-0.8,0.2-1.1
				c0-0.1,0-0.2,0-0.2c2-9.1,10.2-15.9,20-15.9h12.2c2.2,0.1,4.6,0.2,7,0.5c2.8,0.3,5.7,0.8,8.6,1.5c1.5,0.4,2.8,0.8,4,1.3
				c0.2,0.1,0.4,0.2,0.6,0.2c0.1,0.1,0.3,0.1,0.4,0.2c0.2,0.1,0.4,0.2,0.6,0.3c0,0,0,0,0,0c0.3,0.1,0.5,0.3,0.8,0.4
				c0.1,0.1,0.3,0.1,0.4,0.2c0.2,0.1,0.4,0.2,0.6,0.4c0.2,0.2,0.5,0.3,0.7,0.5c0.1,0.1,0.2,0.2,0.3,0.3c0.5,0.4,1,0.9,1.5,1.3
				c0.2,0.2,0.4,0.4,0.5,0.6c0.2,0.2,0.3,0.4,0.5,0.7c0,0,0.1,0.1,0.1,0.2c0.2,0.2,0.3,0.5,0.5,0.7
				C185.4,290,185.8,292.8,185.4,296.1z M201.8,289.2c-1.6-0.5-3.4-0.8-5.1-0.8s-3.5,0.3-5.1,0.8c-1.1-4.3-3.7-8-7.6-10.7h25.4
				C205.5,281.2,202.9,284.8,201.8,289.2z M264.6,317.4c-2.3,4.5-6.6,10-13.3,11.1c-1.3,0.2-2.7,0.3-4.1,0.3c0,0,0,0,0,0
				c-8.4,0-17.7-4-25.7-11c-0.9-0.8-1.8-1.7-2.7-2.5c-0.4-0.4-0.8-0.9-1.2-1.3c-0.1,0-0.1-0.1-0.2-0.2c0,0,0,0,0,0
				c-0.7-0.8-1.3-1.5-2-2.3c-0.2-0.3-0.5-0.6-0.7-0.9c-0.1,0-0.1-0.1-0.1-0.1c-0.3-0.4-0.5-0.7-0.8-1.1c-0.3-0.4-0.5-0.7-0.8-1.1
				c-0.5-0.8-1-1.6-1.5-2.3c-0.2-0.4-0.4-0.7-0.6-1.1c-0.2-0.4-0.4-0.8-0.6-1.1c-0.2-0.4-0.4-0.8-0.5-1.1c-0.3-0.6-0.5-1.3-0.7-1.9
				c-0.5-1.3-0.8-2.5-1-3.8c-0.1-0.3-0.1-0.7-0.2-1c-0.4-3.3,0.1-6,1.4-8.4c0.2-0.3,0.3-0.5,0.5-0.8c0.2-0.2,0.3-0.5,0.5-0.7
				c0-0.1,0.1-0.1,0.1-0.2c0.1-0.2,0.3-0.3,0.5-0.5c0.4-0.5,0.9-0.9,1.5-1.4c0.2-0.1,0.3-0.3,0.5-0.4c0,0,0.1-0.1,0.1-0.1
				c0.2-0.1,0.4-0.3,0.6-0.4c0.5-0.3,1.1-0.6,1.6-0.9c0,0,0,0,0.1,0c0.4-0.2,0.8-0.4,1.3-0.6c0.2-0.1,0.4-0.2,0.6-0.3
				c0.2-0.1,0.5-0.2,0.7-0.3c0.4-0.1,0.8-0.3,1.1-0.4c0.2-0.1,0.5-0.2,0.7-0.2c0.4-0.1,0.8-0.2,1.1-0.3c5.5-1.4,10.8-1.8,15.6-2
				h12.2c9.1,0,16.9,5.9,19.5,14c0.2,0.6,0.4,1.3,0.5,1.9c0.1,0.5,0.2,0.9,0.2,1.4c0.1,0.9,0.2,1.8,0.2,2.8
				C269.2,304.8,267.5,311.9,264.6,317.4z"/>
			<path class="st12" d="M269.2,298.5c0,6.3-1.7,13.4-4.6,18.9c-2.3,4.5-6.6,10-13.3,11.1c-1.3,0.2-2.7,0.3-4.1,0.3c0,0,0,0,0,0
				c-8.4,0-17.7-4-25.7-11c-7.5-6.6-12.5-14.7-13.4-21.8c-0.4-3.2,0.1-6,1.4-8.4c2-3.4,5.8-5.9,11.6-7.3c5.5-1.4,10.8-1.8,15.6-2
				h12.1c9.1,0,16.9,5.9,19.5,14v3.3c0.2,0,0.5,0,0.7,0h0C269.1,296.6,269.2,297.5,269.2,298.5z"/>
			<path class="st12" d="M185.4,296.1c-0.9,7.1-5.9,15.2-13.4,21.8c-7.9,7-17.3,11-25.7,11c-0.4,0-0.8,0-1.2,0c-1-0.1-2-0.2-3-0.3
				c-6.8-1.1-11-6.7-13.3-11.1c-2.9-5.5-4.6-12.6-4.6-18.9c0-0.9,0.1-1.9,0.2-2.8c0.1,0,0.1,0,0.2,0v-1.1c0-0.1,0-0.2,0.1-0.2
				c1.9-9.1,10.2-15.9,20-15.9h12.1c2.2,0.1,4.6,0.2,7,0.5c2.8,0.3,5.7,0.8,8.6,1.5c5.7,1.4,9.6,3.9,11.6,7.3
				C185.4,290,185.8,292.8,185.4,296.1z"/>
		</g>
	</g>
</g>
<path class="st10" d="M131.4,236.2c0,0,17.6-29,48-33s9.9,5.2,52.4,0L131.4,236.2z"/>
<path class="st13" d="M151.7,347.1c0,0,35.4,43,90,0C241.7,347.1,195.3,378.4,151.7,347.1z"/>
<path class="st13" d="M174.2,366.2c0,0,17.7,21.5,45,0C219.2,366.2,196,381.8,174.2,366.2z"/>
<text transform="matrix(0.9061 0 0 1 132.7896 314.7069)" class="st14 st15">&lt;</text>
<g>
	<path d="M242.6,287.4v3.5l17.9,9.9v0.1l-17.9,9.9v3.5l21.2-12.1v-2.7L242.6,287.4z"/>
	<path d="M234.5,285.5L224,316.3h3.1l10.5-30.7H234.5z"/>
</g>
<path class="st4" d="M148.7,476.5l-14,1.9c-0.4-1-0.8-2-1.2-2.9c-0.2-0.5-0.4-1-0.6-1.5c-0.1-0.2-0.2-0.5-0.3-0.7
	c-0.3-0.6-0.5-1.1-0.8-1.7c-0.3-0.7-0.7-1.5-1-2.2c-0.1-0.2-0.2-0.4-0.3-0.6l17.3-2.9c0.1,0.4,0.1,0.7,0.2,1.1
	c0,0.1,0.1,0.3,0.1,0.4c0.1,1.2,0.3,2.4,0.4,3.7c0.1,0.8,0.1,1.5,0.2,2.3C148.6,474.4,148.7,475.5,148.7,476.5z"/>
<g>
	<g>
		<path class="st16" d="M157.3,403.7c-0.9-0.9-2.3-1.5-4-1.6c0.1,0,0.1,0,0.2,0C155.1,402.2,156.5,402.8,157.3,403.7z"/>
		<path class="st17" d="M157.9,405.3c0,1.7-2,3.2-4.4,3.2c-2.4,0-4.4-1.4-4.4-3.2c0-1.7,1.8-3.1,4.2-3.2c1.6,0,3.1,0.7,4,1.6
			C157.7,404.2,157.9,404.8,157.9,405.3z"/>
		<path class="st16" d="M156.9,408.7c-4.2,2.4-8.9,0.2-8.9-2.8c0-2.1,2.3-3.8,5.1-3.8c0.1,0,0.1,0,0.2,0c-2.3,0.1-4.2,1.5-4.2,3.2
			c0,1.7,2,3.2,4.4,3.2c2.4,0,4.4-1.4,4.4-3.2c0-0.6-0.2-1.1-0.6-1.6C158.6,405,158.7,406.9,156.9,408.7z"/>
	</g>
	<g>
		<path class="st16" d="M161.5,411.3c-0.1-0.1-0.3-0.3-0.5-0.4c-0.9-0.7-2.1-1.1-3.5-1.2h0.2c1.4,0,2.6,0.5,3.4,1.2c0,0,0,0,0,0
			C161.2,411,161.3,411.2,161.5,411.3z"/>
		<path class="st17" d="M162,412.9c0,1.7-2,3.2-4.4,3.2c-2.4,0-4.4-1.4-4.4-3.2c0-1.7,1.8-3.1,4.2-3.2c1.6,0,3.1,0.7,4,1.6
			C161.8,411.8,162,412.3,162,412.9z"/>
		<path class="st16" d="M161,416.3c-4.2,2.4-8.8,0.2-8.8-2.8c0-1,0.5-1.9,1.3-2.6c0.5-0.4,1.1-0.7,1.8-0.9l0,0
			c0.5-0.2,1.1-0.3,1.8-0.3c0,0,0.1,0,0.2,0h0.2c-0.1,0-0.2,0-0.3,0c-2.1,0.2-3.8,1.5-3.8,3.1c0,1.8,2,3.2,4.4,3.2
			c2.4,0,4.3-1.4,4.3-3.2c0-0.6-0.2-1.1-0.6-1.6C162.7,412.6,162.9,414.5,161,416.3z"/>
	</g>
	<g>
		<path class="st16" d="M165.6,419.3c-0.9-0.9-2.3-1.5-3.9-1.6h0.2C163.5,417.7,164.8,418.3,165.6,419.3z"/>
		<path class="st17" d="M166.2,420.8c0,1.7-2,3.2-4.4,3.2c-2.4,0-4.4-1.4-4.4-3.2c0-1.7,1.8-3.1,4.2-3.2c1.6,0,3.1,0.7,4,1.6
			C166,419.7,166.2,420.3,166.2,420.8z"/>
		<path class="st16" d="M165.2,424.2c-4.2,2.4-8.8,0.2-8.8-2.8c0-2.1,2.3-3.8,5.1-3.8h0.2c-2.3,0.1-4.2,1.5-4.2,3.2
			c0,1.8,2,3.2,4.4,3.2c2.4,0,4.4-1.4,4.4-3.2c0-0.6-0.2-1.1-0.6-1.6C166.9,420.5,167,422.4,165.2,424.2z"/>
	</g>
	<g>
		<path class="st16" d="M170.7,427.3c-0.9-0.9-2.3-1.5-4-1.6h0.2C168.6,425.7,170,426.4,170.7,427.3z"/>
		<path class="st17" d="M171.3,428.9c0,1.7-2,3.2-4.4,3.2c-2.4,0-4.4-1.4-4.4-3.2c0-1.7,1.8-3.1,4.2-3.2c1.6,0,3.1,0.7,4,1.6
			C171.1,427.8,171.3,428.3,171.3,428.9z"/>
		<path class="st16" d="M170.3,432.3c-4.2,2.4-8.8,0.2-8.8-2.8c0-2.1,2.3-3.8,5.1-3.8h0.2c-2.3,0.1-4.2,1.5-4.2,3.2
			c0,1.8,2,3.2,4.4,3.2c2.4,0,4.4-1.4,4.4-3.2c0-0.6-0.2-1.1-0.6-1.6C172,428.6,172.2,430.5,170.3,432.3z"/>
	</g>
	<g>
		<path class="st16" d="M175.5,434.9c-0.9-0.9-2.3-1.5-4-1.6h0.2C173.3,433.3,174.7,433.9,175.5,434.9z"/>
		<path class="st17" d="M176.1,436.4c0,1.7-2,3.2-4.4,3.2c-2.4,0-4.4-1.4-4.4-3.2c0-1.7,1.8-3.1,4.2-3.2c1.6,0,3.1,0.7,4,1.6
			C175.8,435.3,176.1,435.9,176.1,436.4z"/>
		<path class="st16" d="M175.5,439.4C175.5,439.4,175.4,439.4,175.5,439.4C175.4,439.4,175.4,439.4,175.5,439.4
			c-0.2,0.2-0.3,0.3-0.4,0.4c0,0-0.1,0.1-0.1,0.1c-0.7,0.4-1.3,0.6-2,0.7c-0.3,0.1-0.6,0.1-0.9,0.2c-3.1,0.3-5.8-1.5-5.8-3.7
			c0-0.4,0.1-0.9,0.3-1.3c0.7-1.5,2.6-2.5,4.8-2.5h0.2c-2.2,0.1-4,1.4-4.2,3c0,0,0,0.1,0,0.2c0,1.8,1.9,3.2,4.4,3.2
			c0.6,0,1.3-0.1,1.8-0.3c1.5-0.5,2.5-1.6,2.5-2.9c0-0.6-0.2-1.1-0.6-1.6C176.6,436,176.9,437.7,175.5,439.4z"/>
	</g>
	<g>
		<path class="st16" d="M180.2,440.9c-0.9-0.9-2.3-1.5-4-1.6h0.2C178,439.3,179.5,440,180.2,440.9z"/>
		<path class="st17" d="M180.8,442.5c0,1.7-2,3.2-4.4,3.2c-2.4,0-4.4-1.4-4.4-3.2c0-1.7,1.8-3.1,4.2-3.2c1.6,0,3.1,0.7,4,1.6
			C180.6,441.4,180.8,441.9,180.8,442.5z"/>
		<path class="st16" d="M179.8,445.9c0,0-0.1,0-0.1,0.1c-0.4,0.2-0.9,0.4-1.3,0.6c0,0,0,0,0,0c-3.8,1.2-7.4-0.8-7.4-3.4
			c0-0.9,0.4-1.7,1.1-2.3c0.6-0.5,1.3-0.9,2.2-1.2c0.4-0.1,0.8-0.2,1.3-0.2c0.2,0,0.4,0,0.6,0h0.2c-0.3,0-0.6,0-0.8,0.1c0,0,0,0,0,0
			c-0.3,0.1-0.7,0.1-1,0.3c-0.6,0.2-1.1,0.6-1.5,0.9c-0.5,0.5-0.8,1.2-0.8,1.9c0,1.8,2,3.2,4.4,3.2s4.4-1.4,4.4-3.2
			c0-0.2,0-0.5-0.1-0.7c-0.1-0.3-0.3-0.6-0.5-0.9c0.3,0.3,0.5,0.6,0.7,1C181.4,443,181.2,444.5,179.8,445.9z"/>
	</g>
	<g>
		<path class="st16" d="M185.7,447.2c-0.9-0.9-2.3-1.5-4-1.6c0.1,0,0.1,0,0.2,0C183.5,445.7,184.9,446.3,185.7,447.2z"/>
		<path class="st17" d="M186.3,448.8c0,1.7-2,3.2-4.4,3.2c-2.4,0-4.4-1.4-4.4-3.2c0-1.7,1.8-3.1,4.2-3.2c1.6,0,3.1,0.7,4,1.6
			C186.1,447.7,186.3,448.3,186.3,448.8z"/>
		<path class="st16" d="M185.3,452.2c-4.2,2.4-8.9,0.2-8.9-2.8c0-2.1,2.3-3.8,5.1-3.8c0.1,0,0.1,0,0.2,0c-2.3,0.1-4.2,1.5-4.2,3.2
			c0,1.7,2,3.2,4.4,3.2c2.4,0,4.4-1.4,4.4-3.2c0-0.6-0.2-1.1-0.6-1.6C187,448.5,187.1,450.4,185.3,452.2z"/>
	</g>
	<g>
		<path class="st16" d="M195.9,462.7c-0.9-0.9-2.3-1.5-4-1.6c0.1,0,0.1,0,0.2,0C193.8,461.1,195.2,461.7,195.9,462.7z"/>
		<path class="st17" d="M196.5,464.3c0,1.7-2,3.2-4.4,3.2c-2.4,0-4.4-1.4-4.4-3.2c0-1.7,1.8-3.1,4.2-3.2c1.6,0,3.1,0.7,4,1.6
			C196.3,463.1,196.5,463.7,196.5,464.3z"/>
		<path class="st16" d="M195.5,467.6c-4.2,2.4-8.9,0.2-8.9-2.8c0-2.1,2.3-3.8,5.1-3.8c0.1,0,0.1,0,0.2,0c-2.3,0.1-4.2,1.5-4.2,3.2
			c0,1.7,2,3.2,4.4,3.2c2.4,0,4.4-1.4,4.4-3.2c0-0.6-0.2-1.1-0.6-1.6C197.2,463.9,197.4,465.8,195.5,467.6z"/>
	</g>
	<g>
		<path class="st16" d="M243.7,401.5c-0.9-0.9-2.3-1.5-4-1.6c0.1,0,0.1,0,0.2,0C241.5,400,243,400.6,243.7,401.5z"/>
		<path class="st17" d="M244.3,403.1c0,1.7-2,3.2-4.4,3.2c-2.4,0-4.4-1.4-4.4-3.2c0-1.7,1.8-3.1,4.2-3.2c1.6,0,3.1,0.7,4,1.6
			C244.1,402,244.3,402.6,244.3,403.1z"/>
		<path class="st16" d="M243.3,406.5c-4.2,2.4-8.9,0.2-8.9-2.8c0-2.1,2.3-3.8,5.1-3.8c0.1,0,0.1,0,0.2,0c-2.3,0.1-4.2,1.5-4.2,3.2
			c0,1.7,2,3.2,4.4,3.2c2.4,0,4.4-1.4,4.4-3.2c0-0.6-0.2-1.1-0.6-1.6C245,402.8,245.1,404.7,243.3,406.5z"/>
	</g>
	<g>
		<path class="st16" d="M239.7,408.3c-0.9-0.9-2.3-1.5-4-1.6c0.1,0,0.1,0,0.2,0C237.6,406.7,239,407.4,239.7,408.3z"/>
		<path class="st17" d="M240.3,409.9c0,1.7-2,3.2-4.4,3.2c-2.4,0-4.4-1.4-4.4-3.2c0-1.7,1.8-3.1,4.2-3.2c1.6,0,3.1,0.7,4,1.6
			C240.1,408.8,240.3,409.3,240.3,409.9z"/>
		<path class="st16" d="M240.5,411.4c-0.2,0.6-0.6,1.3-1.2,1.9c-1.5,0.9-3.1,1.1-4.5,1c-0.1,0-0.1,0-0.2,0c-0.7-0.1-1.4-0.3-2-0.6
			c0,0-0.1,0-0.1,0c-1.2-0.7-2-1.8-2-3c0-1.7,1.5-3.1,3.6-3.6c0.5-0.1,1-0.2,1.5-0.2c0.1,0,0.1,0,0.2,0c-0.6,0-1.1,0.1-1.6,0.3h0
			c-1.5,0.5-2.5,1.6-2.5,2.9c0,1.7,2,3.2,4.3,3.2c1.8,0,3.3-0.8,4-1.9c0.3-0.4,0.4-0.8,0.4-1.3c0-0.6-0.2-1.1-0.6-1.6
			C240.6,409.1,240.9,410.3,240.5,411.4z"/>
	</g>
	<g>
		<path class="st16" d="M235.8,415.1c-0.3-0.3-0.7-0.6-1.2-0.9c-0.6-0.3-1.3-0.5-2-0.6c-0.3,0-0.5-0.1-0.8-0.1c0.1,0,0.1,0,0.2,0
			c0.2,0,0.3,0,0.5,0c0.9,0.1,1.7,0.3,2.3,0.7C235.2,414.5,235.5,414.7,235.8,415.1z"/>
		<path class="st17" d="M236.4,416.7c0,1.7-2,3.2-4.4,3.2c-2.4,0-4.4-1.4-4.4-3.2c0-1.7,1.8-3.1,4.2-3.2c1.6,0,3.1,0.7,4,1.6
			C236.1,415.5,236.4,416.1,236.4,416.7z"/>
		<path class="st16" d="M235.4,420c-4.2,2.4-8.9,0.2-8.9-2.8c0-2.1,2.3-3.8,5.1-3.8c0.1,0,0.1,0,0.2,0c-2.3,0.1-4.2,1.5-4.2,3.2
			c0,1.7,1.9,3.2,4.3,3.2c2.4,0,4.4-1.4,4.4-3.2c0-0.6-0.2-1.1-0.6-1.6C237,416.4,237.2,418.3,235.4,420z"/>
	</g>
	<g>
		<path class="st16" d="M230.7,422.6c-0.9-0.9-2.3-1.5-4-1.6h0.2C228.5,421,229.9,421.6,230.7,422.6z"/>
		<path class="st17" d="M231.2,424.1c0,1.7-2,3.2-4.4,3.2c-2.4,0-4.4-1.4-4.4-3.2c0-1.7,1.8-3.1,4.2-3.2c1.6,0,3.1,0.7,4,1.6
			C231,423,231.2,423.6,231.2,424.1z"/>
		<path class="st16" d="M230.2,427.5c-4.2,2.4-8.8,0.2-8.8-2.8c0-2.1,2.3-3.8,5.1-3.8h0.2c-2.3,0.1-4.2,1.5-4.2,3.2
			c0,1.7,2,3.2,4.4,3.2c2.4,0,4.4-1.4,4.4-3.2c0-0.6-0.2-1.1-0.6-1.6C231.9,423.8,232.1,425.7,230.2,427.5z"/>
	</g>
	<g>
		<path class="st16" d="M229.5,430.4c-0.9-0.9-2.3-1.5-4-1.6h0.2C227.3,428.8,228.8,429.5,229.5,430.4z"/>
		<path class="st17" d="M230.1,432c0,1.7-2,3.2-4.4,3.2c-2.4,0-4.4-1.4-4.4-3.2c0-1.7,1.8-3.1,4.2-3.2c1.6,0,3.1,0.7,4,1.6
			C229.9,430.9,230.1,431.4,230.1,432z"/>
		<path class="st16" d="M230.4,433.1c-0.1,0.7-0.5,1.5-1.3,2.3c-1.3,0.7-2.6,1-3.8,1c0,0,0,0,0,0c-2.8,0-5-1.7-5-3.8
			c0-2.1,2.3-3.8,5.1-3.8h0.2c-2.3,0.1-4.2,1.5-4.2,3.2c0,1.8,2,3.2,4.4,3.2c0.9,0,1.7-0.2,2.4-0.5c0.4-0.2,0.7-0.4,1-0.6
			c0,0,0,0,0,0c0.6-0.5,1-1.2,1-2c0-0.6-0.2-1.1-0.6-1.6C230.2,431.2,230.6,432.1,230.4,433.1z"/>
	</g>
	<g>
		<path class="st16" d="M226.7,437.9c-0.5-0.5-1.2-1-2-1.2h0c-0.6-0.2-1.3-0.3-1.9-0.3h0.2c0.7,0,1.3,0.1,1.9,0.3
			C225.6,436.9,226.2,437.4,226.7,437.9z"/>
		<path class="st17" d="M227.3,439.5c0,1.7-2,3.2-4.4,3.2c-2.4,0-4.4-1.4-4.4-3.2c0-1.7,1.8-3.1,4.2-3.2c1.6,0,3.1,0.7,4,1.6
			C227.1,438.4,227.3,438.9,227.3,439.5z"/>
		<path class="st16" d="M226.3,442.9c-4.2,2.4-8.9,0.2-8.9-2.8v-0.1c0-2.1,2.3-3.7,5.1-3.7h0.2c-2.3,0.1-4.2,1.5-4.2,3.2
			c0,0,0,0,0,0.1c0,1.7,2,3.1,4.3,3.1c2.4,0,4.4-1.4,4.4-3.2c0-0.6-0.2-1.1-0.6-1.6C227.9,439.2,228.1,441.1,226.3,442.9z"/>
	</g>
	<g>
		<path class="st16" d="M221.6,445.7c-0.9-0.9-2.3-1.5-4-1.6c0.1,0,0.1,0,0.2,0C219.4,444.1,220.8,444.8,221.6,445.7z"/>
		<path class="st17" d="M222.2,447.3c0,1.7-2,3.2-4.4,3.2c-2.4,0-4.4-1.4-4.4-3.2c0-1.7,1.8-3.1,4.2-3.2c1.6,0,3.1,0.7,4,1.6
			C222,446.2,222.2,446.7,222.2,447.3z"/>
		<path class="st16" d="M221.2,450.7c-4.2,2.4-8.9,0.2-8.9-2.8c0-2.1,2.3-3.8,5.1-3.8c0.1,0,0.1,0,0.2,0c-2.3,0.1-4.2,1.5-4.2,3.2
			c0,1.7,2,3.2,4.4,3.2c2.4,0,4.4-1.4,4.4-3.2c0-0.6-0.2-1.1-0.6-1.6C222.8,447,223,448.9,221.2,450.7z"/>
	</g>
	<g>
		<path class="st16" d="M212.5,460.5c-0.9-0.9-2.3-1.5-4-1.6c0.1,0,0.1,0,0.2,0C210.3,458.9,211.7,459.5,212.5,460.5z"/>
		<path class="st17" d="M213.1,462.1c0,1.7-2,3.2-4.4,3.2c-2.4,0-4.4-1.4-4.4-3.2c0-1.7,1.8-3.1,4.2-3.2c1.6,0,3.1,0.7,4,1.6
			C212.9,460.9,213.1,461.5,213.1,462.1z"/>
		<path class="st16" d="M212.1,465.4c-4.2,2.4-8.9,0.2-8.9-2.8c0-2.1,2.3-3.8,5.1-3.8c0.1,0,0.1,0,0.2,0c-2.3,0.1-4.2,1.5-4.2,3.2
			c0,1.7,2,3.2,4.4,3.2c2.4,0,4.4-1.4,4.4-3.2c0-0.6-0.2-1.1-0.6-1.6C213.7,461.7,213.9,463.6,212.1,465.4z"/>
	</g>
	<g>
		<path class="st16" d="M217.6,453.3c-0.9-0.9-2.3-1.5-4-1.6c0.1,0,0.1,0,0.2,0C215.4,451.7,216.9,452.4,217.6,453.3z"/>
		<path class="st17" d="M218.2,454.9c0,1.7-2,3.2-4.4,3.2c-2.4,0-4.4-1.4-4.4-3.2c0-1.7,1.8-3.1,4.2-3.2c1.6,0,3.1,0.7,4,1.6
			C218,453.8,218.2,454.3,218.2,454.9z"/>
		<path class="st16" d="M217.2,458.3c-4.2,2.4-8.9,0.2-8.9-2.8c0-2.1,2.3-3.8,5.1-3.8c0.1,0,0.1,0,0.2,0c-2.3,0.1-4.2,1.5-4.2,3.2
			c0,1.7,2,3.2,4.4,3.2c2.4,0,4.4-1.4,4.4-3.2c0-0.6-0.2-1.1-0.6-1.6C218.9,454.6,219,456.5,217.2,458.3z"/>
	</g>
	<g>
		<path class="st16" d="M190.8,453.9c-0.9-0.9-2.3-1.5-4-1.6c0.1,0,0.1,0,0.2,0C188.7,452.3,190.1,453,190.8,453.9z"/>
		<path class="st17" d="M191.4,455.5c0,1.7-2,3.2-4.4,3.2c-2.4,0-4.4-1.4-4.4-3.2c0-1.7,1.8-3.1,4.2-3.2c1.6,0,3.1,0.7,4,1.6
			C191.2,454.4,191.4,454.9,191.4,455.5z"/>
		<path class="st16" d="M190.4,458.9c-4.2,2.4-8.9,0.2-8.9-2.8c0-2.1,2.3-3.8,5.1-3.8c0.1,0,0.1,0,0.2,0c-2.3,0.1-4.2,1.5-4.2,3.2
			c0,1.7,2,3.2,4.4,3.2c2.4,0,4.4-1.4,4.4-3.2c0-0.6-0.2-1.1-0.6-1.6C192.1,455.2,192.3,457.1,190.4,458.9z"/>
	</g>
</g>
<path class="st5" d="M305.4,521.9V535l-56.5,7.8l-1.4-3.9L83.1,561.5v-9L184,538.6c-0.5-0.9-0.8-1.8-0.9-2.8l-2.5-15.1l-2.2-13.3
	h2.9l2.2,13.3l1.7,10.4c0.1,0.5,0.2,1.1,0.4,1.6c0.5,1.4,1.2,2.5,2.2,3.5c0.6,0.6,1.3,1.1,2,1.6l39.1-5.4c0.3-0.2,0.5-0.5,0.8-0.7
	c0.3-0.3,0.5-0.5,0.7-0.8c0.3-0.3,0.5-0.7,0.7-1.1c0.2-0.4,0.4-0.8,0.6-1.2c0.1-0.2,0.1-0.3,0.2-0.5c0.5-1.5,0.7-3.1,0.4-4.7
	l-0.5-2.8l-2.2-13.3h2.9l2.2,13.3l1.1,6.5c0.2,1.5,0.1,2.9-0.3,4.3h0L305.4,521.9z"/>
<text transform="matrix(0.9902 -0.1398 0.1398 0.9902 64.9674 541.8493)" class="st18 st19" style="font-family: 'ADAM.CG PRO'">Sivanesh</text>
<text transform="matrix(0.9902 -0.1398 0.1398 0.9902 68.8567 543.832)" class="st20 st18 st19" style="font-family: 'ADAM.CG PRO'">Sivanesh</text>
<path class="st21" d="M351.9,514.4l-8.8-64.2c-0.7-5.4-5.8-9.3-11.2-8.5l-26.8,3.7h0l-22.1,3h0l-65.1,9h0l-2,0.3l0,0h-0.1l-2.4,0.3
	h0l0,0h0l-3.1,0.4L148,467l-17.2,2.4l-2.9,0.4l-16.9,2.3l-20.1,2.8l-6.9,1L53.7,480c-1.1,0.2-2.1,0.5-3.1,1c-0.1,0-0.2,0.1-0.3,0.2
	c-2.1,1.2-3.8,3.1-4.6,5.4c-0.5,1.5-0.7,3.1-0.5,4.7l8.8,64.2c0.8,5.4,5.8,9.3,11.2,8.5l17.8-2.5l164.4-22.6l57.9-8l38.1-5.2
	c1.3-0.2,2.5-0.6,3.5-1.2c0.4-0.2,0.8-0.5,1.1-0.8C350.9,521.6,352.5,518.1,351.9,514.4z M343,517.9c-1.3,1-2.9,1.7-4.7,1.9l-33,4.5
	l-71.2,9.8h0l-48.6,6.7h0L83.1,555l-14.4,2c-5.4,0.8-10.5-3.1-11.3-8.5L50.3,497c-0.2-1.6,0-3.2,0.5-4.7c1.2-3.4,4.2-6,8-6.5l22.1-3
	l0,0l2-0.3h0l0.1,0l47.5-6.5l2.9-0.4l15.1-2.1l26.7-3.7h0l13.5-1.9h0l3.6-0.5h0l0,0l0,0l1-0.1h0l0.1,0h0l2.5-0.4h0l9-1.3l3.2-0.4h0
	l0,0h0l2.1-0.3h0l2.2-0.3h0l10.7-1.5h0l53.1-7.3l29.3-4l0,0l22.6-3.1c5.4-0.8,10.5,3.1,11.3,8.5l7.1,51.4
	C347.4,512.3,345.8,515.8,343,517.9z"/>
<path class="st0" d="M343.5,513.2l-0.7-5.3l-6.3-46.1c-0.8-5.4-5.8-9.3-11.2-8.5l-18.8,2.6h0l-33.8,4.7h0l-46.7,6.4l-4.8,0.7
	l-42.2,5.8h0l-5.4,0.7c-0.1,0.9-0.1,1.9,0,2.8l4.9,30.5l2.2,13.3l2.5,15.1c0.2,1,0.5,1.9,0.9,2.8L83.1,552.5L72.1,554
	c-5.4,0.8-10.5-3.1-11.3-8.5l-6.3-45.9c-0.5-3.9,1.3-7.5,4.3-9.6l-3.4,0.5c-1.8,0.2-3.3,0.9-4.7,2c-2.8,2.1-4.4,5.6-3.9,9.3
	l7.1,51.4c0.8,5.4,5.8,9.3,11.2,8.5l17.8-2.4l222.3-30.6l29.6-4.1c3.8-0.5,6.8-3.2,8-6.5C343.5,516.5,343.7,514.9,343.5,513.2z
	 M293.4,507.4c6.6,0,12,5.4,12,12v2.5l-69.9,9.6h0c0.4-1.3,0.5-2.8,0.3-4.3l-1.1-6.5l-2.2-13.3H293.4z M183.5,520.7l-2.2-13.3h48.3
	l2.2,13.3l0.5,2.8c0.3,1.6,0.1,3.2-0.4,4.7c-0.1,0.2-0.1,0.3-0.2,0.5c-0.2,0.4-0.4,0.8-0.6,1.2c-0.2,0.4-0.5,0.8-0.7,1.1
	c-0.2,0.3-0.5,0.5-0.7,0.8c-0.2,0.3-0.5,0.5-0.8,0.7l-39.1,5.4c-0.7-0.4-1.4-1-2-1.6c-1-1-1.7-2.2-2.2-3.5c-0.2-0.5-0.3-1-0.4-1.6
	L183.5,520.7z M129.9,499.6l-41-4.6c0.7,0.1,1.2,0.7,1.2,1.4v12.2c1.5-0.7,3.2-1.1,5-1.1h36.4v-9.2
	C131.4,499,130.7,499.7,129.9,499.6z M129.9,499.6l-41-4.6c0.7,0.1,1.2,0.7,1.2,1.4v12.2c1.5-0.7,3.2-1.1,5-1.1h36.4v-9.2
	C131.4,499,130.7,499.7,129.9,499.6z M129.9,499.6l-41-4.6c0.7,0.1,1.2,0.7,1.2,1.4v12.2c1.5-0.7,3.2-1.1,5-1.1h36.4v-9.2
	C131.4,499,130.7,499.7,129.9,499.6z M129.9,499.6l-41-4.6c0.7,0.1,1.2,0.7,1.2,1.4v12.2c1.5-0.7,3.2-1.1,5-1.1h36.4v-9.2
	C131.4,499,130.7,499.7,129.9,499.6z M129.9,499.6l-41-4.6c0.7,0.1,1.2,0.7,1.2,1.4v12.2c1.5-0.7,3.2-1.1,5-1.1h36.4v-9.2
	C131.4,499,130.7,499.7,129.9,499.6z M129.9,499.6l-41-4.6c0.7,0.1,1.2,0.7,1.2,1.4v12.2c1.5-0.7,3.2-1.1,5-1.1h36.4v-9.2
	C131.4,499,130.7,499.7,129.9,499.6z M131.4,519.3v-11.9H95.1c-1.8,0-3.5,0.4-5,1.1v0.4c0,6.5,5.3,11.8,11.8,11.8h30.9
	C132,520.7,131.4,520.1,131.4,519.3z M348.6,519l-8.8-64.2c-0.8-5.4-5.8-9.3-11.3-8.5l-22.9,3.2h0l-26.6,3.7h0l-58.4,8h0l-7.1,1
	l-0.3,0l-8.3,1.2h0l-1.4,0.2l-6.5,0.9l-0.3,0l-8.3,1.1l-1.4,0.2l-8.3,1.1l-30.1,4.1l-15.9,2.2l-2.7,0.4l-46.4,6.4l-33,4.5
	c-1.8,0.2-3.3,0.9-4.7,1.9c-2.8,2.1-4.4,5.6-3.9,9.3l8.8,64.2c0.8,5.4,5.8,9.3,11.2,8.5l21.2-2.9v-4.1l164.4-22.6l1.4,3.9l56.5-7.8
	l34.7-4.8c2.8-0.4,5.3-2,6.8-4.1l0,0l0.5-0.9c0.2-0.3,0.3-0.6,0.4-0.9c0.1-0.2,0.2-0.4,0.3-0.6C348.6,522.3,348.8,520.7,348.6,519z
	 M173.7,473.1c-0.1,0.4-0.2,0.7-0.2,1.1l-24.7,3.4l-13.7,1.9l-3.8,0.5l-31.7,4.4h0l-4.3-0.5l35.8-4.9l3.5-0.5l14-1.9L173.7,473.1z
	 M219.9,466.7L219.9,466.7c0.4,0.3,0.8,0.6,1.2,0.9l-42.2,5.8h0c0.3-0.4,0.7-0.8,1.1-1.2L219.9,466.7z M273.6,459.3l32.7-4.5l0.1,1
	l-33.8,4.7h0l-46.7,6.4c-0.1-0.3-0.2-0.7-0.4-1L273.6,459.3z M305.4,521.9l-69.9,9.6h0c0.4-1.3,0.5-2.8,0.3-4.3l-1.1-6.5l-2.2-13.3
	h60.8c6.6,0,12,5.4,12,12V521.9z M229.6,507.4l2.2,13.3l0.5,2.8c0.3,1.6,0.1,3.2-0.4,4.7c-0.1,0.2-0.1,0.3-0.2,0.5
	c-0.2,0.4-0.4,0.8-0.6,1.2c-0.2,0.4-0.5,0.8-0.7,1.1c-0.2,0.3-0.5,0.5-0.7,0.8c-0.2,0.3-0.5,0.5-0.8,0.7l-39.1,5.4
	c-0.7-0.4-1.4-1-2-1.6c-1-1-1.7-2.2-2.2-3.5c-0.2-0.5-0.3-1-0.4-1.6l-1.7-10.4l-2.2-13.3H229.6z M183,535.8l-2.5-15.1l-2.2-13.3
	H95.1c-1.8,0-3.5,0.4-5,1.1c-4.1,1.9-7,6.1-7,10.9v33L184,538.6C183.5,537.7,183.2,536.8,183,535.8z M131.4,519.3v-11.9H95.1
	c-1.8,0-3.5,0.4-5,1.1v0.4c0,6.5,5.3,11.8,11.8,11.8h30.9C132,520.7,131.4,520.1,131.4,519.3z M183,535.8l-2.5-15.1l-2.2-13.3
	l-4.9-30.5c-0.1-1-0.2-1.9,0-2.8l-24.7,3.4l-13.7,1.9l-3.8,0.5l-31.7,4.4h0l-4.3-0.5h0l-12.1,1.7l-0.5,0.1l-3.8,0.5h0l-0.1,1.1h0
	l-19.9,2.7c-3,2.1-4.8,5.7-4.3,9.6l6.3,45.9c0.8,5.4,5.8,9.3,11.3,8.5l10.9-1.5L184,538.6C183.5,537.7,183.2,536.8,183,535.8z
	 M129.9,499.6l-41-4.6c0.7,0.1,1.2,0.7,1.2,1.4v12.2c1.5-0.7,3.2-1.1,5-1.1h36.4v-9.2C131.4,499,130.7,499.7,129.9,499.6z
	 M129.9,499.6l-41-4.6c0.7,0.1,1.2,0.7,1.2,1.4v12.2c1.5-0.7,3.2-1.1,5-1.1h36.4v-9.2C131.4,499,130.7,499.7,129.9,499.6z
	 M129.9,499.6l-41-4.6c0.7,0.1,1.2,0.7,1.2,1.4v12.2c1.5-0.7,3.2-1.1,5-1.1h36.4v-9.2C131.4,499,130.7,499.7,129.9,499.6z
	 M129.9,499.6l-41-4.6c0.7,0.1,1.2,0.7,1.2,1.4v12.2c1.5-0.7,3.2-1.1,5-1.1h36.4v-9.2C131.4,499,130.7,499.7,129.9,499.6z
	 M129.9,499.6l-41-4.6c0.7,0.1,1.2,0.7,1.2,1.4v12.2c1.5-0.7,3.2-1.1,5-1.1h36.4v-9.2C131.4,499,130.7,499.7,129.9,499.6z
	 M129.9,499.6l-41-4.6c0.7,0.1,1.2,0.7,1.2,1.4v12.2c1.5-0.7,3.2-1.1,5-1.1h36.4v-9.2C131.4,499,130.7,499.7,129.9,499.6z
	 M78.7,487.2l-19.9,2.7c-3,2.1-4.8,5.7-4.3,9.6l6.3,45.9c0.8,5.4,5.8,9.3,11.2,8.5l10.9-1.5L184,538.6c-0.5-0.9-0.8-1.8-0.9-2.8
	l-2.5-15.1l-2.2-13.3l-4.9-30.4c-0.1-1-0.2-1.9,0-2.8l-24.7,3.4l-13.7,1.9l-3.8,0.5l-31.7,4.4h0l-4.3-0.5h0l-12.1,1.7l-0.5,0.1
	l-3.8,0.5h0L78.7,487.2 M78.7,487.2L78.7,487.2"/>
<path class="st22" d="M346.8,508.6l-7.1-51.4c-0.8-5.4-5.8-9.3-11.3-8.5l-22.6,3.1l0,0l-29.3,4l-53.1,7.3h0l-10.7,1.5h0l-2.2,0.3h0
	l-2.1,0.3h0l0,0h0l-3.2,0.4l-9,1.3h0l-2.5,0.4h0l-0.1,0h0l-1,0.1l0,0l0,0h0l-3.6,0.5h0l-13.5,1.9h0l-26.7,3.7l-15.1,2.1l-2.9,0.4
	l-47.5,6.5l-0.1,0h0l-2,0.3l0,0l-22.1,3c-3.8,0.5-6.8,3.2-8,6.5c-0.5,1.5-0.7,3.1-0.5,4.7l7.1,51.4c0.8,5.4,5.8,9.3,11.3,8.5l14.4-2
	l102.5-14.1h0l48.6-6.7h0l71.2-9.8l33-4.5c1.8-0.2,3.3-0.9,4.7-1.9C345.8,515.8,347.4,512.3,346.8,508.6z M334.1,517.9l-28.8,4
	l-69.9,9.6h0l-6.7,0.9l-39.1,5.4l-5.8,0.8h0L83.1,552.5L72.1,554c-5.4,0.8-10.5-3.1-11.3-8.5l-6.3-45.9c-0.5-3.9,1.3-7.5,4.3-9.6
	c1.2-0.9,2.7-1.4,4.3-1.7l15.8-2.2h0l3.8-0.5l0.5-0.1l12.1-1.7h0l35.8-4.9l3.5-0.5l14-1.9l24.9-3.4h0l6.3-0.9l40-5.5h0l5.5-0.8
	l48.2-6.6l32.7-4.5h0l18.8-2.6c5.4-0.8,10.5,3.1,11.2,8.5l6.3,45.9c0,0.4,0.1,0.8,0.1,1.2C342.8,512.9,339.2,517.2,334.1,517.9z"/>
<polygon class="st23" points="224,473.1 229.6,507.4 229.6,507.4 "/>
<path class="st23" d="M231.8,528.2c0.5-1.5,0.7-3.1,0.4-4.7l-0.5-2.8l-2.2-13.3l2.2,13.3l0.4,2.8
	C232.5,525.1,232.3,526.7,231.8,528.2z"/>
<path class="st24" d="M235.8,527.2l-1.1-6.5l-2.2-13.3l-6.3-39c-0.1-0.5-0.2-1-0.4-1.5c-0.1-0.3-0.2-0.7-0.4-1c-0.5-1.1-1.2-2-2-2.8
	c-0.8-0.8-1.8-1.5-2.9-2h0c-1.6-0.7-3.5-1-5.3-0.7l-2.4,0.4l-0.1,0l-8.4,1.4l-1.1,0.2l-6.7,1.1l-0.2,0l-8.5,1.4l-1.2,0.2l-5.3,0.9
	c-1,0.2-2,0.5-2.9,1c-1.3,0.7-2.4,1.6-3.3,2.8c-0.7,1-1.3,2.1-1.6,3.3c-0.1,0.4-0.2,0.7-0.2,1.1c-0.1,0.9-0.1,1.9,0,2.8l4.9,30.5
	l2.2,13.3l2.5,15.1c0.2,1,0.5,1.9,0.9,2.8c0.4,0.8,1,1.6,1.6,2.3h0c2.1,2.2,5.2,3.3,8.4,2.8l33.8-5.5c2.7-0.4,4.9-1.9,6.3-4
	c0.6-0.8,1-1.7,1.3-2.7C235.9,530.2,236,528.7,235.8,527.2z M224.3,534.5l-28.1,4.6c-2.3,0.4-4.6-0.1-6.4-1.2c-0.7-0.4-1.4-1-2-1.6
	c-1-1-1.7-2.2-2.2-3.5c-0.2-0.5-0.3-1-0.4-1.6l-1.7-10.4l-2.2-13.3l-4.3-26.7c-0.3-2.1,0.1-4.2,1-6c0.2-0.5,0.5-0.9,0.8-1.3
	c0.3-0.4,0.7-0.8,1.1-1.2c1.3-1.3,3-2.1,5-2.4l6.8-1.1h0l2.3-0.4l0,0h0l12.5-2l5.5-0.9h0l0.8-0.1c2.5-0.4,4.9,0.2,6.9,1.5h0
	c0.4,0.3,0.8,0.6,1.1,0.9c0.6,0.5,1.1,1.1,1.5,1.8c0.2,0.3,0.4,0.7,0.6,1c0.2,0.4,0.3,0.7,0.5,1.1c0.2,0.5,0.3,1,0.4,1.6l5.6,34.4h0
	l2.2,13.3l0.5,2.8c0.3,1.6,0.1,3.2-0.4,4.7c-0.1,0.2-0.1,0.3-0.2,0.5c-0.2,0.4-0.4,0.8-0.6,1.2c-0.2,0.4-0.5,0.8-0.7,1.1
	c-0.2,0.3-0.5,0.5-0.7,0.8c-0.2,0.3-0.5,0.5-0.8,0.7C227.5,533.5,226,534.2,224.3,534.5z"/>
<path class="st5" d="M248.9,542.8L83.1,565.6v38.7c0,6.6,5.4,12,12,12h179.8h16.5h2c6.6,0,12-5.4,12-12v-10.8V535L248.9,542.8z"/>
<polygon class="st21" points="347.8,524.4 347,524.5 305.4,529.8 297.4,530.8 246.9,537.3 247.5,538.9 83.1,561.5 83.1,565.6 
	248.9,542.8 305.4,535 305.4,593.6 314.4,578.8 346.8,526.1 346.9,526.1 347.4,525.2 347.9,524.3 "/>
<path class="st4" d="M104.2,421.5C104.2,421.5,104.2,421.5,104.2,421.5c-1.1,0.4-2.1,0.8-3.2,1.3c-0.3,0.1-0.5,0.3-0.8,0.4
	c-0.3,0.2-0.6,0.4-0.9,0.5c-0.4,0.2-0.8,0.5-1.1,0.7c-0.3,0.2-0.5,0.4-0.8,0.6c-0.1,0.1-0.2,0.2-0.3,0.3l1.3,0.9l3.7,2.6l11.6,8.1
	l0,0l9.8,6.8l21.3,14.8C134.8,440.6,105,422,104.2,421.5z"/>
<polygon class="st21" points="123,472.1 112,473.7 90.5,476.7 83.7,477.7 49.3,482.5 50.5,481.1 50.6,481 75.5,452.5 84,442.8 
	81.5,475.7 86.3,476 86.4,475.5 90.8,474.9 90.7,475.8 "/>
<path class="st5" d="M86.4,475.5l4.5-0.6l20.1-2.8l16.6-2.8l2.9-0.5l17.3-2.9l6.3-1.1l-9.2-6.4l-21.3-14.8l-9.8-6.8l0,0l-11.6-8.1
	l-3.7-2.6l-1.3-0.9c-0.1,0.1-0.2,0.1-0.3,0.2c-0.2,0.2-0.4,0.3-0.6,0.5c-0.3,0.2-0.6,0.5-0.8,0.7c-0.2,0.2-0.4,0.4-0.6,0.6
	c-0.2,0.2-0.4,0.4-0.6,0.6c-0.2,0.2-0.4,0.4-0.6,0.6c-0.1,0.2-0.3,0.3-0.4,0.5c-0.3,0.3-0.5,0.6-0.7,1c-0.2,0.2-0.3,0.4-0.5,0.6
	c-0.1,0.2-0.2,0.4-0.4,0.6c-0.1,0.1-0.1,0.2-0.2,0.3c-0.1,0.1-0.1,0.2-0.2,0.3c0,0,0,0,0,0c-0.1,0.2-0.2,0.3-0.3,0.5
	c0,0,0,0.1,0,0.1c-0.1,0.2-0.2,0.4-0.3,0.6c0,0.1-0.1,0.1-0.1,0.2c-0.1,0.3-0.3,0.5-0.4,0.8c0,0.1-0.1,0.2-0.1,0.3
	c-0.2,0.4-0.3,0.7-0.5,1.1c0,0.1-0.1,0.2-0.1,0.3c0,0,0,0.1,0,0.1c0,0.1-0.1,0.1-0.1,0.2c-0.1,0.1-0.1,0.3-0.1,0.4c0,0,0,0.1,0,0.1
	c0,0.1-0.1,0.2-0.1,0.3L86.4,475.5z"/>
</svg>
